G04 #@! TF.FileFunction,Copper,L1,Top,Signal*
%FSLAX46Y46*%
G04 Gerber Fmt 4.6, Leading zero omitted, Abs format (unit mm)*
G04 Created by KiCad (PCBNEW 4.0.1-stable) date 2016 February 17, Wednesday 09:16:12*
%MOMM*%
G01*
G04 APERTURE LIST*
%ADD10C,0.100000*%
%ADD11C,0.300000*%
%ADD12R,2.300000X1.150000*%
%ADD13R,1.150000X2.300000*%
%ADD14O,1.600000X1.600000*%
%ADD15R,2.032000X2.032000*%
%ADD16O,2.032000X2.032000*%
%ADD17C,0.250000*%
G04 APERTURE END LIST*
D10*
D11*
X95211429Y-130288571D02*
X95211429Y-128788571D01*
X95211429Y-129502857D02*
X96068572Y-129502857D01*
X96068572Y-130288571D02*
X96068572Y-128788571D01*
X96640001Y-129288571D02*
X96997144Y-130288571D01*
X97354286Y-129288571D02*
X96997144Y-130288571D01*
X96854286Y-130645714D01*
X96782858Y-130717143D01*
X96640001Y-130788571D01*
X97925715Y-130288571D02*
X97925715Y-128788571D01*
X97925715Y-129360000D02*
X98068572Y-129288571D01*
X98354286Y-129288571D01*
X98497143Y-129360000D01*
X98568572Y-129431429D01*
X98640001Y-129574286D01*
X98640001Y-130002857D01*
X98568572Y-130145714D01*
X98497143Y-130217143D01*
X98354286Y-130288571D01*
X98068572Y-130288571D01*
X97925715Y-130217143D01*
X99282858Y-130288571D02*
X99282858Y-129288571D01*
X99282858Y-129574286D02*
X99354286Y-129431429D01*
X99425715Y-129360000D01*
X99568572Y-129288571D01*
X99711429Y-129288571D01*
X100211429Y-130288571D02*
X100211429Y-129288571D01*
X100211429Y-128788571D02*
X100140000Y-128860000D01*
X100211429Y-128931429D01*
X100282857Y-128860000D01*
X100211429Y-128788571D01*
X100211429Y-128931429D01*
X101568572Y-130288571D02*
X101568572Y-128788571D01*
X101568572Y-130217143D02*
X101425715Y-130288571D01*
X101140001Y-130288571D01*
X100997143Y-130217143D01*
X100925715Y-130145714D01*
X100854286Y-130002857D01*
X100854286Y-129574286D01*
X100925715Y-129431429D01*
X100997143Y-129360000D01*
X101140001Y-129288571D01*
X101425715Y-129288571D01*
X101568572Y-129360000D01*
X104140001Y-130288571D02*
X103425715Y-130288571D01*
X103425715Y-128788571D01*
X105211429Y-130217143D02*
X105068572Y-130288571D01*
X104782858Y-130288571D01*
X104640001Y-130217143D01*
X104568572Y-130074286D01*
X104568572Y-129502857D01*
X104640001Y-129360000D01*
X104782858Y-129288571D01*
X105068572Y-129288571D01*
X105211429Y-129360000D01*
X105282858Y-129502857D01*
X105282858Y-129645714D01*
X104568572Y-129788571D01*
X105711429Y-129288571D02*
X106282858Y-129288571D01*
X105925715Y-128788571D02*
X105925715Y-130074286D01*
X105997143Y-130217143D01*
X106140001Y-130288571D01*
X106282858Y-130288571D01*
X106568572Y-129288571D02*
X107140001Y-129288571D01*
X106782858Y-128788571D02*
X106782858Y-130074286D01*
X106854286Y-130217143D01*
X106997144Y-130288571D01*
X107140001Y-130288571D01*
X108211429Y-130217143D02*
X108068572Y-130288571D01*
X107782858Y-130288571D01*
X107640001Y-130217143D01*
X107568572Y-130074286D01*
X107568572Y-129502857D01*
X107640001Y-129360000D01*
X107782858Y-129288571D01*
X108068572Y-129288571D01*
X108211429Y-129360000D01*
X108282858Y-129502857D01*
X108282858Y-129645714D01*
X107568572Y-129788571D01*
X108925715Y-130288571D02*
X108925715Y-129288571D01*
X108925715Y-129574286D02*
X108997143Y-129431429D01*
X109068572Y-129360000D01*
X109211429Y-129288571D01*
X109354286Y-129288571D01*
X109854286Y-130288571D02*
X109854286Y-128788571D01*
X109854286Y-129360000D02*
X109997143Y-129288571D01*
X110282857Y-129288571D01*
X110425714Y-129360000D01*
X110497143Y-129431429D01*
X110568572Y-129574286D01*
X110568572Y-130002857D01*
X110497143Y-130145714D01*
X110425714Y-130217143D01*
X110282857Y-130288571D01*
X109997143Y-130288571D01*
X109854286Y-130217143D01*
X111425715Y-130288571D02*
X111282857Y-130217143D01*
X111211429Y-130145714D01*
X111140000Y-130002857D01*
X111140000Y-129574286D01*
X111211429Y-129431429D01*
X111282857Y-129360000D01*
X111425715Y-129288571D01*
X111640000Y-129288571D01*
X111782857Y-129360000D01*
X111854286Y-129431429D01*
X111925715Y-129574286D01*
X111925715Y-130002857D01*
X111854286Y-130145714D01*
X111782857Y-130217143D01*
X111640000Y-130288571D01*
X111425715Y-130288571D01*
X112425715Y-130288571D02*
X113211429Y-129288571D01*
X112425715Y-129288571D02*
X113211429Y-130288571D01*
X92104287Y-132545714D02*
X92032858Y-132617143D01*
X91818572Y-132688571D01*
X91675715Y-132688571D01*
X91461430Y-132617143D01*
X91318572Y-132474286D01*
X91247144Y-132331429D01*
X91175715Y-132045714D01*
X91175715Y-131831429D01*
X91247144Y-131545714D01*
X91318572Y-131402857D01*
X91461430Y-131260000D01*
X91675715Y-131188571D01*
X91818572Y-131188571D01*
X92032858Y-131260000D01*
X92104287Y-131331429D01*
X93390001Y-132688571D02*
X93390001Y-131902857D01*
X93318572Y-131760000D01*
X93175715Y-131688571D01*
X92890001Y-131688571D01*
X92747144Y-131760000D01*
X93390001Y-132617143D02*
X93247144Y-132688571D01*
X92890001Y-132688571D01*
X92747144Y-132617143D01*
X92675715Y-132474286D01*
X92675715Y-132331429D01*
X92747144Y-132188571D01*
X92890001Y-132117143D01*
X93247144Y-132117143D01*
X93390001Y-132045714D01*
X94104287Y-132688571D02*
X94104287Y-131688571D01*
X94104287Y-131831429D02*
X94175715Y-131760000D01*
X94318573Y-131688571D01*
X94532858Y-131688571D01*
X94675715Y-131760000D01*
X94747144Y-131902857D01*
X94747144Y-132688571D01*
X94747144Y-131902857D02*
X94818573Y-131760000D01*
X94961430Y-131688571D01*
X95175715Y-131688571D01*
X95318573Y-131760000D01*
X95390001Y-131902857D01*
X95390001Y-132688571D01*
X96675715Y-132617143D02*
X96532858Y-132688571D01*
X96247144Y-132688571D01*
X96104287Y-132617143D01*
X96032858Y-132474286D01*
X96032858Y-131902857D01*
X96104287Y-131760000D01*
X96247144Y-131688571D01*
X96532858Y-131688571D01*
X96675715Y-131760000D01*
X96747144Y-131902857D01*
X96747144Y-132045714D01*
X96032858Y-132188571D01*
X97390001Y-132688571D02*
X97390001Y-131688571D01*
X97390001Y-131974286D02*
X97461429Y-131831429D01*
X97532858Y-131760000D01*
X97675715Y-131688571D01*
X97818572Y-131688571D01*
X98961429Y-132688571D02*
X98961429Y-131902857D01*
X98890000Y-131760000D01*
X98747143Y-131688571D01*
X98461429Y-131688571D01*
X98318572Y-131760000D01*
X98961429Y-132617143D02*
X98818572Y-132688571D01*
X98461429Y-132688571D01*
X98318572Y-132617143D01*
X98247143Y-132474286D01*
X98247143Y-132331429D01*
X98318572Y-132188571D01*
X98461429Y-132117143D01*
X98818572Y-132117143D01*
X98961429Y-132045714D01*
X101318572Y-131902857D02*
X101532858Y-131974286D01*
X101604286Y-132045714D01*
X101675715Y-132188571D01*
X101675715Y-132402857D01*
X101604286Y-132545714D01*
X101532858Y-132617143D01*
X101390000Y-132688571D01*
X100818572Y-132688571D01*
X100818572Y-131188571D01*
X101318572Y-131188571D01*
X101461429Y-131260000D01*
X101532858Y-131331429D01*
X101604286Y-131474286D01*
X101604286Y-131617143D01*
X101532858Y-131760000D01*
X101461429Y-131831429D01*
X101318572Y-131902857D01*
X100818572Y-131902857D01*
X102532858Y-132688571D02*
X102390000Y-132617143D01*
X102318572Y-132545714D01*
X102247143Y-132402857D01*
X102247143Y-131974286D01*
X102318572Y-131831429D01*
X102390000Y-131760000D01*
X102532858Y-131688571D01*
X102747143Y-131688571D01*
X102890000Y-131760000D01*
X102961429Y-131831429D01*
X103032858Y-131974286D01*
X103032858Y-132402857D01*
X102961429Y-132545714D01*
X102890000Y-132617143D01*
X102747143Y-132688571D01*
X102532858Y-132688571D01*
X104318572Y-132688571D02*
X104318572Y-131902857D01*
X104247143Y-131760000D01*
X104104286Y-131688571D01*
X103818572Y-131688571D01*
X103675715Y-131760000D01*
X104318572Y-132617143D02*
X104175715Y-132688571D01*
X103818572Y-132688571D01*
X103675715Y-132617143D01*
X103604286Y-132474286D01*
X103604286Y-132331429D01*
X103675715Y-132188571D01*
X103818572Y-132117143D01*
X104175715Y-132117143D01*
X104318572Y-132045714D01*
X105032858Y-132688571D02*
X105032858Y-131688571D01*
X105032858Y-131974286D02*
X105104286Y-131831429D01*
X105175715Y-131760000D01*
X105318572Y-131688571D01*
X105461429Y-131688571D01*
X106604286Y-132688571D02*
X106604286Y-131188571D01*
X106604286Y-132617143D02*
X106461429Y-132688571D01*
X106175715Y-132688571D01*
X106032857Y-132617143D01*
X105961429Y-132545714D01*
X105890000Y-132402857D01*
X105890000Y-131974286D01*
X105961429Y-131831429D01*
X106032857Y-131760000D01*
X106175715Y-131688571D01*
X106461429Y-131688571D01*
X106604286Y-131760000D01*
X108318572Y-131688571D02*
X108675715Y-132688571D01*
X109032857Y-131688571D01*
X110390000Y-132688571D02*
X109532857Y-132688571D01*
X109961429Y-132688571D02*
X109961429Y-131188571D01*
X109818572Y-131402857D01*
X109675714Y-131545714D01*
X109532857Y-131617143D01*
X111032857Y-132545714D02*
X111104285Y-132617143D01*
X111032857Y-132688571D01*
X110961428Y-132617143D01*
X111032857Y-132545714D01*
X111032857Y-132688571D01*
X112532857Y-132688571D02*
X111675714Y-132688571D01*
X112104286Y-132688571D02*
X112104286Y-131188571D01*
X111961429Y-131402857D01*
X111818571Y-131545714D01*
X111675714Y-131617143D01*
X113104285Y-132617143D02*
X113247142Y-132688571D01*
X113532857Y-132688571D01*
X113675714Y-132617143D01*
X113747142Y-132474286D01*
X113747142Y-132402857D01*
X113675714Y-132260000D01*
X113532857Y-132188571D01*
X113318571Y-132188571D01*
X113175714Y-132117143D01*
X113104285Y-131974286D01*
X113104285Y-131902857D01*
X113175714Y-131760000D01*
X113318571Y-131688571D01*
X113532857Y-131688571D01*
X113675714Y-131760000D01*
X114390000Y-132688571D02*
X114390000Y-131688571D01*
X114390000Y-131831429D02*
X114461428Y-131760000D01*
X114604286Y-131688571D01*
X114818571Y-131688571D01*
X114961428Y-131760000D01*
X115032857Y-131902857D01*
X115032857Y-132688571D01*
X115032857Y-131902857D02*
X115104286Y-131760000D01*
X115247143Y-131688571D01*
X115461428Y-131688571D01*
X115604286Y-131760000D01*
X115675714Y-131902857D01*
X115675714Y-132688571D01*
X117032857Y-132688571D02*
X117032857Y-131188571D01*
X117032857Y-132617143D02*
X116890000Y-132688571D01*
X116604286Y-132688571D01*
X116461428Y-132617143D01*
X116390000Y-132545714D01*
X116318571Y-132402857D01*
X116318571Y-131974286D01*
X116390000Y-131831429D01*
X116461428Y-131760000D01*
X116604286Y-131688571D01*
X116890000Y-131688571D01*
X117032857Y-131760000D01*
X102211429Y-82657143D02*
X103354286Y-82657143D01*
X102782857Y-83228571D02*
X102782857Y-82085714D01*
X104782858Y-81728571D02*
X104068572Y-81728571D01*
X103997143Y-82442857D01*
X104068572Y-82371429D01*
X104211429Y-82300000D01*
X104568572Y-82300000D01*
X104711429Y-82371429D01*
X104782858Y-82442857D01*
X104854286Y-82585714D01*
X104854286Y-82942857D01*
X104782858Y-83085714D01*
X104711429Y-83157143D01*
X104568572Y-83228571D01*
X104211429Y-83228571D01*
X104068572Y-83157143D01*
X103997143Y-83085714D01*
X105282857Y-81728571D02*
X105782857Y-83228571D01*
X106282857Y-81728571D01*
X99187143Y-75450000D02*
X99044286Y-75378571D01*
X98830000Y-75378571D01*
X98615715Y-75450000D01*
X98472857Y-75592857D01*
X98401429Y-75735714D01*
X98330000Y-76021429D01*
X98330000Y-76235714D01*
X98401429Y-76521429D01*
X98472857Y-76664286D01*
X98615715Y-76807143D01*
X98830000Y-76878571D01*
X98972857Y-76878571D01*
X99187143Y-76807143D01*
X99258572Y-76735714D01*
X99258572Y-76235714D01*
X98972857Y-76235714D01*
X99901429Y-76878571D02*
X99901429Y-75378571D01*
X100758572Y-76878571D01*
X100758572Y-75378571D01*
X101472858Y-76878571D02*
X101472858Y-75378571D01*
X101830001Y-75378571D01*
X102044286Y-75450000D01*
X102187144Y-75592857D01*
X102258572Y-75735714D01*
X102330001Y-76021429D01*
X102330001Y-76235714D01*
X102258572Y-76521429D01*
X102187144Y-76664286D01*
X102044286Y-76807143D01*
X101830001Y-76878571D01*
X101472858Y-76878571D01*
X129072858Y-90848571D02*
X129072858Y-89348571D01*
X129644286Y-89348571D01*
X129787144Y-89420000D01*
X129858572Y-89491429D01*
X129930001Y-89634286D01*
X129930001Y-89848571D01*
X129858572Y-89991429D01*
X129787144Y-90062857D01*
X129644286Y-90134286D01*
X129072858Y-90134286D01*
X130572858Y-90848571D02*
X130572858Y-89848571D01*
X130572858Y-89348571D02*
X130501429Y-89420000D01*
X130572858Y-89491429D01*
X130644286Y-89420000D01*
X130572858Y-89348571D01*
X130572858Y-89491429D01*
X133287144Y-90705714D02*
X133215715Y-90777143D01*
X133001429Y-90848571D01*
X132858572Y-90848571D01*
X132644287Y-90777143D01*
X132501429Y-90634286D01*
X132430001Y-90491429D01*
X132358572Y-90205714D01*
X132358572Y-89991429D01*
X132430001Y-89705714D01*
X132501429Y-89562857D01*
X132644287Y-89420000D01*
X132858572Y-89348571D01*
X133001429Y-89348571D01*
X133215715Y-89420000D01*
X133287144Y-89491429D01*
X134572858Y-90848571D02*
X134572858Y-90062857D01*
X134501429Y-89920000D01*
X134358572Y-89848571D01*
X134072858Y-89848571D01*
X133930001Y-89920000D01*
X134572858Y-90777143D02*
X134430001Y-90848571D01*
X134072858Y-90848571D01*
X133930001Y-90777143D01*
X133858572Y-90634286D01*
X133858572Y-90491429D01*
X133930001Y-90348571D01*
X134072858Y-90277143D01*
X134430001Y-90277143D01*
X134572858Y-90205714D01*
X135287144Y-90848571D02*
X135287144Y-89848571D01*
X135287144Y-89991429D02*
X135358572Y-89920000D01*
X135501430Y-89848571D01*
X135715715Y-89848571D01*
X135858572Y-89920000D01*
X135930001Y-90062857D01*
X135930001Y-90848571D01*
X135930001Y-90062857D02*
X136001430Y-89920000D01*
X136144287Y-89848571D01*
X136358572Y-89848571D01*
X136501430Y-89920000D01*
X136572858Y-90062857D01*
X136572858Y-90848571D01*
X137858572Y-90777143D02*
X137715715Y-90848571D01*
X137430001Y-90848571D01*
X137287144Y-90777143D01*
X137215715Y-90634286D01*
X137215715Y-90062857D01*
X137287144Y-89920000D01*
X137430001Y-89848571D01*
X137715715Y-89848571D01*
X137858572Y-89920000D01*
X137930001Y-90062857D01*
X137930001Y-90205714D01*
X137215715Y-90348571D01*
X138572858Y-90848571D02*
X138572858Y-89848571D01*
X138572858Y-90134286D02*
X138644286Y-89991429D01*
X138715715Y-89920000D01*
X138858572Y-89848571D01*
X139001429Y-89848571D01*
X140144286Y-90848571D02*
X140144286Y-90062857D01*
X140072857Y-89920000D01*
X139930000Y-89848571D01*
X139644286Y-89848571D01*
X139501429Y-89920000D01*
X140144286Y-90777143D02*
X140001429Y-90848571D01*
X139644286Y-90848571D01*
X139501429Y-90777143D01*
X139430000Y-90634286D01*
X139430000Y-90491429D01*
X139501429Y-90348571D01*
X139644286Y-90277143D01*
X140001429Y-90277143D01*
X140144286Y-90205714D01*
X142501429Y-90062857D02*
X142715715Y-90134286D01*
X142787143Y-90205714D01*
X142858572Y-90348571D01*
X142858572Y-90562857D01*
X142787143Y-90705714D01*
X142715715Y-90777143D01*
X142572857Y-90848571D01*
X142001429Y-90848571D01*
X142001429Y-89348571D01*
X142501429Y-89348571D01*
X142644286Y-89420000D01*
X142715715Y-89491429D01*
X142787143Y-89634286D01*
X142787143Y-89777143D01*
X142715715Y-89920000D01*
X142644286Y-89991429D01*
X142501429Y-90062857D01*
X142001429Y-90062857D01*
X143715715Y-90848571D02*
X143572857Y-90777143D01*
X143501429Y-90705714D01*
X143430000Y-90562857D01*
X143430000Y-90134286D01*
X143501429Y-89991429D01*
X143572857Y-89920000D01*
X143715715Y-89848571D01*
X143930000Y-89848571D01*
X144072857Y-89920000D01*
X144144286Y-89991429D01*
X144215715Y-90134286D01*
X144215715Y-90562857D01*
X144144286Y-90705714D01*
X144072857Y-90777143D01*
X143930000Y-90848571D01*
X143715715Y-90848571D01*
X145501429Y-90848571D02*
X145501429Y-90062857D01*
X145430000Y-89920000D01*
X145287143Y-89848571D01*
X145001429Y-89848571D01*
X144858572Y-89920000D01*
X145501429Y-90777143D02*
X145358572Y-90848571D01*
X145001429Y-90848571D01*
X144858572Y-90777143D01*
X144787143Y-90634286D01*
X144787143Y-90491429D01*
X144858572Y-90348571D01*
X145001429Y-90277143D01*
X145358572Y-90277143D01*
X145501429Y-90205714D01*
X146215715Y-90848571D02*
X146215715Y-89848571D01*
X146215715Y-90134286D02*
X146287143Y-89991429D01*
X146358572Y-89920000D01*
X146501429Y-89848571D01*
X146644286Y-89848571D01*
X147787143Y-90848571D02*
X147787143Y-89348571D01*
X147787143Y-90777143D02*
X147644286Y-90848571D01*
X147358572Y-90848571D01*
X147215714Y-90777143D01*
X147144286Y-90705714D01*
X147072857Y-90562857D01*
X147072857Y-90134286D01*
X147144286Y-89991429D01*
X147215714Y-89920000D01*
X147358572Y-89848571D01*
X147644286Y-89848571D01*
X147787143Y-89920000D01*
D12*
X114300000Y-112522000D03*
X114300000Y-114300000D03*
X114300000Y-116078000D03*
X119316500Y-112585500D03*
X119316500Y-114300000D03*
X119316500Y-116078000D03*
D13*
X134112000Y-135890000D03*
X135890000Y-135890000D03*
X137668000Y-135890000D03*
X134175500Y-130873500D03*
X135890000Y-130873500D03*
X137668000Y-130873500D03*
X151892000Y-135890000D03*
X153670000Y-135890000D03*
X155448000Y-135890000D03*
X151955500Y-130873500D03*
X153670000Y-130873500D03*
X155448000Y-130873500D03*
D12*
X175260000Y-117348000D03*
X175260000Y-115570000D03*
X175260000Y-113792000D03*
X170243500Y-117284500D03*
X170243500Y-115570000D03*
X170243500Y-113792000D03*
X175260000Y-97028000D03*
X175260000Y-95250000D03*
X175260000Y-93472000D03*
X170243500Y-96964500D03*
X170243500Y-95250000D03*
X170243500Y-93472000D03*
D13*
X156718000Y-74930000D03*
X154940000Y-74930000D03*
X153162000Y-74930000D03*
X156654500Y-79946500D03*
X154940000Y-79946500D03*
X153162000Y-79946500D03*
X136398000Y-74930000D03*
X134620000Y-74930000D03*
X132842000Y-74930000D03*
X136334500Y-79946500D03*
X134620000Y-79946500D03*
X132842000Y-79946500D03*
D12*
X114300000Y-93472000D03*
X114300000Y-95250000D03*
X114300000Y-97028000D03*
X119316500Y-93535500D03*
X119316500Y-95250000D03*
X119316500Y-97028000D03*
D14*
X100330000Y-96520000D03*
X100330000Y-99060000D03*
X100330000Y-101600000D03*
X100330000Y-104140000D03*
X100330000Y-106680000D03*
X100330000Y-109220000D03*
X100330000Y-111760000D03*
X100330000Y-114300000D03*
X107950000Y-114300000D03*
X107950000Y-111760000D03*
X107950000Y-109220000D03*
X107950000Y-106680000D03*
X107950000Y-104140000D03*
X107950000Y-101600000D03*
X107950000Y-99060000D03*
X107950000Y-96520000D03*
D15*
X100330000Y-82550000D03*
D16*
X100330000Y-80010000D03*
D17*
X134112000Y-135890000D02*
X128270000Y-135890000D01*
X114300000Y-121920000D02*
X114300000Y-114300000D01*
X128270000Y-135890000D02*
X114300000Y-121920000D01*
X114300000Y-114300000D02*
X114300000Y-112522000D01*
X151892000Y-135890000D02*
X137668000Y-135890000D01*
X137668000Y-135890000D02*
X135890000Y-135890000D01*
X135890000Y-135890000D02*
X134112000Y-135890000D01*
X175260000Y-117348000D02*
X175260000Y-121920000D01*
X161290000Y-135890000D02*
X153670000Y-135890000D01*
X175260000Y-121920000D02*
X161290000Y-135890000D01*
X153670000Y-135890000D02*
X151892000Y-135890000D01*
X175260000Y-97028000D02*
X175260000Y-113792000D01*
X175260000Y-113792000D02*
X175260000Y-115570000D01*
X175260000Y-115570000D02*
X175260000Y-117348000D01*
X156718000Y-74930000D02*
X160020000Y-74930000D01*
X175260000Y-90170000D02*
X175260000Y-93472000D01*
X160020000Y-74930000D02*
X175260000Y-90170000D01*
X175260000Y-93472000D02*
X175260000Y-95250000D01*
X175260000Y-95250000D02*
X175260000Y-97028000D01*
X136398000Y-74930000D02*
X153162000Y-74930000D01*
X153162000Y-74930000D02*
X154940000Y-74930000D01*
X154940000Y-74930000D02*
X156718000Y-74930000D01*
X114300000Y-87630000D02*
X114300000Y-86360000D01*
X125730000Y-74930000D02*
X134620000Y-74930000D01*
X114300000Y-86360000D02*
X125730000Y-74930000D01*
X134620000Y-74930000D02*
X136398000Y-74930000D01*
X114300000Y-93472000D02*
X114300000Y-95250000D01*
X114300000Y-95250000D02*
X114300000Y-97028000D01*
X100330000Y-80010000D02*
X106680000Y-80010000D01*
X114300000Y-87630000D02*
X114300000Y-93472000D01*
X106680000Y-80010000D02*
X114300000Y-87630000D01*
X107950000Y-114300000D02*
X111760000Y-110490000D01*
X119316500Y-111696500D02*
X119316500Y-114300000D01*
X118110000Y-110490000D02*
X119316500Y-111696500D01*
X111760000Y-110490000D02*
X118110000Y-110490000D01*
X119316500Y-114300000D02*
X119316500Y-116078000D01*
X107950000Y-111760000D02*
X109220000Y-111760000D01*
X125793500Y-130873500D02*
X134175500Y-130873500D01*
X121920000Y-127000000D02*
X125793500Y-130873500D01*
X121920000Y-111760000D02*
X121920000Y-127000000D01*
X119380000Y-109220000D02*
X121920000Y-111760000D01*
X111760000Y-109220000D02*
X119380000Y-109220000D01*
X109220000Y-111760000D02*
X111760000Y-109220000D01*
X107950000Y-109220000D02*
X110490000Y-109220000D01*
X149352000Y-128270000D02*
X151955500Y-130873500D01*
X127000000Y-128270000D02*
X149352000Y-128270000D01*
X123190000Y-124460000D02*
X127000000Y-128270000D01*
X123190000Y-111760000D02*
X123190000Y-124460000D01*
X119380000Y-107950000D02*
X123190000Y-111760000D01*
X111760000Y-107950000D02*
X119380000Y-107950000D01*
X110490000Y-109220000D02*
X111760000Y-107950000D01*
X151955500Y-130873500D02*
X155448000Y-130873500D01*
X107950000Y-106680000D02*
X120650000Y-106680000D01*
X170243500Y-120586500D02*
X170243500Y-115570000D01*
X165100000Y-125730000D02*
X170243500Y-120586500D01*
X127000000Y-125730000D02*
X165100000Y-125730000D01*
X124460000Y-123190000D02*
X127000000Y-125730000D01*
X124460000Y-110490000D02*
X124460000Y-123190000D01*
X120650000Y-106680000D02*
X124460000Y-110490000D01*
X170243500Y-115570000D02*
X170243500Y-113792000D01*
X107950000Y-104140000D02*
X118110000Y-104140000D01*
X170243500Y-88963500D02*
X170243500Y-95250000D01*
X165100000Y-83820000D02*
X170243500Y-88963500D01*
X129540000Y-83820000D02*
X165100000Y-83820000D01*
X125730000Y-87630000D02*
X129540000Y-83820000D01*
X125730000Y-96520000D02*
X125730000Y-87630000D01*
X118110000Y-104140000D02*
X125730000Y-96520000D01*
X170243500Y-95250000D02*
X170243500Y-96964500D01*
X107950000Y-101600000D02*
X119380000Y-101600000D01*
X150558500Y-82550000D02*
X153162000Y-79946500D01*
X128270000Y-82550000D02*
X150558500Y-82550000D01*
X124460000Y-86360000D02*
X128270000Y-82550000D01*
X124460000Y-96520000D02*
X124460000Y-86360000D01*
X119380000Y-101600000D02*
X124460000Y-96520000D01*
X153162000Y-79946500D02*
X156654500Y-79946500D01*
X107950000Y-99060000D02*
X111760000Y-99060000D01*
X129603500Y-79946500D02*
X134620000Y-79946500D01*
X123190000Y-86360000D02*
X129603500Y-79946500D01*
X123190000Y-96520000D02*
X123190000Y-86360000D01*
X119380000Y-100330000D02*
X123190000Y-96520000D01*
X113030000Y-100330000D02*
X119380000Y-100330000D01*
X111760000Y-99060000D02*
X113030000Y-100330000D01*
X134620000Y-79946500D02*
X136334500Y-79946500D01*
X134620000Y-79946500D02*
X136334500Y-79946500D01*
X107950000Y-96520000D02*
X110490000Y-96520000D01*
X117284500Y-99060000D02*
X119316500Y-97028000D01*
X113030000Y-99060000D02*
X117284500Y-99060000D01*
X110490000Y-96520000D02*
X113030000Y-99060000D01*
X119316500Y-97028000D02*
X119316500Y-93535500D01*
M02*
