<?xml version="1.0" encoding="utf-8"?>
<!-- Generator: Adobe Illustrator 16.0.0, SVG Export Plug-In . SVG Version: 6.00 Build 0)  -->
<!DOCTYPE svg PUBLIC "-//W3C//DTD SVG 1.1//EN" "http://www.w3.org/Graphics/SVG/1.1/DTD/svg11.dtd">
<svg version="1.1" id="Ebene_1" xmlns="http://www.w3.org/2000/svg" xmlns:xlink="http://www.w3.org/1999/xlink" x="0px" y="0px"
	 width="205px" height="51px" viewBox="0 0 205 51" enable-background="new 0 0 205 51" xml:space="preserve">
<g>
	<path fill="#034D7F" d="M68.289,39.137l1.125-0.109c0.068,0.378,0.205,0.655,0.412,0.832s0.486,0.266,0.838,0.266
		c0.373,0,0.653-0.079,0.842-0.236s0.283-0.342,0.283-0.553c0-0.136-0.04-0.251-0.119-0.346s-0.218-0.178-0.416-0.248
		c-0.135-0.047-0.444-0.13-0.926-0.25c-0.62-0.153-1.055-0.343-1.305-0.566c-0.352-0.315-0.527-0.699-0.527-1.152
		c0-0.292,0.083-0.564,0.248-0.818s0.404-0.447,0.715-0.58s0.687-0.199,1.127-0.199c0.719,0,1.26,0.157,1.623,0.473
		s0.554,0.735,0.572,1.262l-1.156,0.051c-0.049-0.294-0.156-0.506-0.318-0.635s-0.407-0.193-0.732-0.193
		c-0.336,0-0.599,0.069-0.789,0.207c-0.123,0.089-0.184,0.207-0.184,0.355c0,0.136,0.057,0.251,0.172,0.348
		c0.146,0.122,0.5,0.25,1.062,0.383s0.979,0.271,1.248,0.412s0.48,0.336,0.633,0.582s0.229,0.55,0.229,0.912
		c0,0.328-0.091,0.636-0.273,0.922s-0.44,0.499-0.773,0.639s-0.749,0.209-1.246,0.209c-0.724,0-1.28-0.167-1.668-0.502
		S68.365,39.777,68.289,39.137z"/>
	<path fill="#034D7F" d="M74.036,41v-5.727h1.156v2.254h2.266v-2.254h1.156V41h-1.156v-2.504h-2.266V41H74.036z"/>
	<path fill="#034D7F" d="M85.139,41h-1.258l-0.5-1.301h-2.289L80.619,41h-1.227l2.23-5.727h1.223L85.139,41z M83.01,38.734
		l-0.789-2.125l-0.773,2.125H83.01z"/>
	<path fill="#034D7F" d="M85.92,41v-5.727h2.434c0.612,0,1.057,0.052,1.334,0.154s0.5,0.286,0.666,0.549s0.25,0.563,0.25,0.902
		c0,0.43-0.126,0.784-0.379,1.064s-0.63,0.456-1.133,0.529c0.25,0.146,0.457,0.306,0.619,0.48s0.382,0.484,0.658,0.93L91.069,41
		h-1.383l-0.836-1.246c-0.297-0.445-0.5-0.726-0.609-0.842s-0.225-0.195-0.348-0.238s-0.316-0.064-0.582-0.064h-0.234V41H85.92z
		 M87.077,37.695h0.855c0.555,0,0.901-0.023,1.039-0.07s0.246-0.128,0.324-0.242s0.117-0.258,0.117-0.43
		c0-0.192-0.051-0.349-0.154-0.467s-0.248-0.193-0.436-0.225c-0.094-0.013-0.375-0.02-0.844-0.02h-0.902V37.695z"/>
	<path fill="#034D7F" d="M91.859,41v-5.727h4.247v0.969h-3.09v1.27h2.875v0.965h-2.875v1.559h3.2V41H91.859z"/>
	<path fill="#034D7F" d="M97.332,35.273h2.113c0.477,0,0.84,0.036,1.09,0.109c0.336,0.099,0.624,0.274,0.863,0.527
		s0.422,0.562,0.547,0.928s0.188,0.817,0.188,1.354c0,0.472-0.059,0.878-0.176,1.219c-0.144,0.417-0.348,0.754-0.613,1.012
		c-0.2,0.195-0.472,0.348-0.812,0.457C100.276,40.96,99.935,41,99.508,41h-2.176V35.273z M98.488,36.242v3.793h0.863
		c0.323,0,0.556-0.019,0.699-0.055c0.188-0.047,0.343-0.126,0.467-0.238s0.225-0.296,0.303-0.553s0.117-0.606,0.117-1.049
		s-0.039-0.782-0.117-1.02s-0.188-0.422-0.328-0.555s-0.319-0.223-0.535-0.27c-0.161-0.036-0.478-0.055-0.949-0.055H98.488z"/>
	<path fill="#034D7F" d="M105.043,39.137l1.125-0.109c0.067,0.378,0.205,0.655,0.412,0.832s0.486,0.266,0.838,0.266
		c0.372,0,0.653-0.079,0.842-0.236s0.283-0.342,0.283-0.553c0-0.136-0.04-0.251-0.119-0.346s-0.218-0.178-0.416-0.248
		c-0.136-0.047-0.444-0.13-0.926-0.25c-0.62-0.153-1.055-0.343-1.305-0.566c-0.352-0.315-0.527-0.699-0.527-1.152
		c0-0.292,0.083-0.564,0.248-0.818s0.403-0.447,0.715-0.58s0.687-0.199,1.127-0.199c0.719,0,1.26,0.157,1.623,0.473
		s0.554,0.735,0.572,1.262l-1.156,0.051c-0.05-0.294-0.155-0.506-0.318-0.635s-0.407-0.193-0.732-0.193
		c-0.336,0-0.599,0.069-0.789,0.207c-0.122,0.089-0.184,0.207-0.184,0.355c0,0.136,0.058,0.251,0.172,0.348
		c0.146,0.122,0.5,0.25,1.062,0.383s0.979,0.271,1.248,0.412s0.48,0.336,0.633,0.582s0.229,0.55,0.229,0.912
		c0,0.328-0.091,0.636-0.273,0.922s-0.44,0.499-0.773,0.639s-0.749,0.209-1.246,0.209c-0.724,0-1.28-0.167-1.668-0.502
		S105.118,39.777,105.043,39.137z"/>
	<path fill="#034D7F" d="M110.513,38.172c0-0.583,0.087-1.073,0.262-1.469c0.13-0.292,0.308-0.554,0.533-0.785
		s0.472-0.403,0.74-0.516c0.356-0.151,0.769-0.227,1.234-0.227c0.844,0,1.519,0.262,2.025,0.785s0.76,1.251,0.76,2.184
		c0,0.925-0.251,1.647-0.754,2.17s-1.175,0.783-2.016,0.783c-0.852,0-1.528-0.26-2.031-0.779S110.513,39.083,110.513,38.172z
		 M111.704,38.133c0,0.648,0.149,1.14,0.449,1.475s0.68,0.502,1.141,0.502s0.839-0.166,1.135-0.498s0.443-0.83,0.443-1.494
		c0-0.656-0.144-1.146-0.432-1.469s-0.67-0.484-1.146-0.484s-0.86,0.163-1.152,0.49S111.704,37.474,111.704,38.133z"/>
	<path fill="#034D7F" d="M120.759,38.895l1.121,0.355c-0.172,0.625-0.458,1.089-0.857,1.393s-0.907,0.455-1.521,0.455
		c-0.761,0-1.386-0.26-1.875-0.779s-0.734-1.229-0.734-2.131c0-0.953,0.246-1.693,0.738-2.221s1.14-0.791,1.941-0.791
		c0.7,0,1.27,0.207,1.707,0.621c0.261,0.245,0.456,0.597,0.586,1.055l-1.145,0.273c-0.067-0.297-0.209-0.531-0.424-0.703
		s-0.476-0.258-0.783-0.258c-0.425,0-0.769,0.152-1.033,0.457s-0.396,0.798-0.396,1.48c0,0.724,0.13,1.239,0.391,1.547
		s0.599,0.461,1.016,0.461c0.308,0,0.571-0.098,0.793-0.293S120.662,39.313,120.759,38.895z"/>
	<path fill="#034D7F" d="M122.925,41v-5.727h1.156V41H122.925z"/>
	<path fill="#034D7F" d="M125.371,41v-5.727h4.246v0.969h-3.09v1.27h2.875v0.965h-2.875v1.559h3.199V41H125.371z"/>
	<path fill="#034D7F" d="M132.131,41v-4.758h-1.699v-0.969h4.551v0.969h-1.695V41H132.131z"/>
	<path fill="#034D7F" d="M135.814,41v-5.727h1.156V41H135.814z"/>
	<path fill="#034D7F" d="M138.26,41v-5.727h4.246v0.969h-3.09v1.27h2.875v0.965h-2.875v1.559h3.199V41H138.26z"/>
	<path fill="#034D7F" d="M143.351,39.137l1.125-0.109c0.067,0.378,0.205,0.655,0.412,0.832s0.486,0.266,0.838,0.266
		c0.372,0,0.653-0.079,0.842-0.236s0.283-0.342,0.283-0.553c0-0.136-0.04-0.251-0.119-0.346s-0.218-0.178-0.416-0.248
		c-0.136-0.047-0.444-0.13-0.926-0.25c-0.62-0.153-1.055-0.343-1.305-0.566c-0.352-0.315-0.527-0.699-0.527-1.152
		c0-0.292,0.083-0.564,0.248-0.818s0.403-0.447,0.715-0.58s0.687-0.199,1.127-0.199c0.719,0,1.26,0.157,1.623,0.473
		s0.554,0.735,0.572,1.262l-1.156,0.051c-0.05-0.294-0.155-0.506-0.318-0.635s-0.407-0.193-0.732-0.193
		c-0.336,0-0.599,0.069-0.789,0.207c-0.122,0.089-0.184,0.207-0.184,0.355c0,0.136,0.058,0.251,0.172,0.348
		c0.146,0.122,0.5,0.25,1.062,0.383s0.979,0.271,1.248,0.412s0.48,0.336,0.633,0.582s0.229,0.55,0.229,0.912
		c0,0.328-0.091,0.636-0.273,0.922s-0.44,0.499-0.773,0.639s-0.749,0.209-1.246,0.209c-0.724,0-1.28-0.167-1.668-0.502
		S143.426,39.777,143.351,39.137z"/>
</g>
<path fill="#04B5DD" d="M41.312,24.17c-0.266-0.461-0.759-0.745-1.291-0.745H31.3c-0.533,0-1.025,0.284-1.291,0.745l-4.361,7.553
	c-0.266,0.461-0.266,1.03,0,1.491l2.389,4.138c0.018,0,0.035-0.008,0.053-0.008h3.71c0.756,0,1.454,0.403,1.832,1.059l1.796,3.109
	h4.594c0.533,0,1.025-0.283,1.291-0.744l4.361-7.554c0.266-0.461,0.266-1.03,0-1.491L41.312,24.17z"/>
<path fill="#386090" d="M15.57,29.238l-2.731-4.73c-0.324-0.562-0.324-1.254,0-1.816l1.014-1.755h-5.82
	c-0.557,0-1.072,0.297-1.351,0.78l-3.473,6.016c-0.279,0.482-0.279,1.078,0,1.561l3.473,6.016c0.279,0.482,0.794,0.779,1.351,0.779
	h6.946c0.557,0,1.072-0.297,1.351-0.779l2.98-5.16h-2.168C16.494,30.146,15.894,29.8,15.57,29.238z"/>
<path fill="#8EBF4C" d="M30.009,40.766l-1.972-3.416c-0.735,0.021-1.41,0.412-1.779,1.051l-1.855,3.215
	c-0.378,0.652-0.378,1.461,0,2.113l1.855,3.213C26.636,47.598,27.334,48,28.09,48h3.71c0.756,0,1.454-0.402,1.832-1.059l1.855-3.213
	c0.378-0.653,0.378-1.461,0-2.114l-0.059-0.104H31.3C30.767,41.512,30.275,41.227,30.009,40.766z"/>
<path fill="#04B5DD" d="M31.8,37.344h-3.71c-0.018,0-0.035,0.008-0.053,0.008l1.972,3.416c0.266,0.461,0.758,0.744,1.291,0.744
	h4.128l-1.796-3.109C33.254,37.747,32.556,37.344,31.8,37.344z"/>
<path fill="#009C52" d="M31.8,37.344h-3.71c-0.018,0-0.035,0.008-0.053,0.008l1.972,3.416c0.266,0.461,0.758,0.744,1.291,0.744
	h4.128l-1.796-3.109C33.254,37.747,32.556,37.344,31.8,37.344z"/>
<path fill="#034D7F" d="M28.067,12.72h-1.485l-1.124,1.947c-0.164,0.284-0.164,0.634,0,0.918l1.866,3.232
	c0.164,0.284,0.467,0.459,0.795,0.459h3.732c0.328,0,0.631-0.175,0.795-0.459l1.866-3.232c0.164-0.284,0.164-0.634,0-0.918
	l-1.866-3.232c-0.164-0.284-0.467-0.459-0.795-0.459h-2.156l-0.696,1.206C28.806,12.515,28.451,12.72,28.067,12.72z"/>
<path fill="#04B5DD" d="M22.766,12.182c0.192,0.333,0.547,0.538,0.931,0.538h2.885l0.742-1.285c0.164-0.284,0.467-0.459,0.795-0.459
	h1.576l1.489-2.579c0.192-0.333,0.192-0.742,0-1.075l-2.185-3.785C28.806,3.205,28.451,3,28.067,3h-4.37
	c-0.384,0-0.739,0.205-0.931,0.538l-2.185,3.785c-0.192,0.333-0.192,0.742,0,1.075L22.766,12.182z"/>
<path fill="#034D7F" d="M27.324,11.435l-0.741,1.285h1.485c0.384,0,0.739-0.205,0.931-0.538l0.696-1.206h-1.576
	C27.791,10.976,27.488,11.151,27.324,11.435z"/>
<path fill="#004C77" d="M27.324,11.435l-0.741,1.285h1.485c0.384,0,0.739-0.205,0.931-0.538l0.696-1.206h-1.576
	C27.791,10.976,27.488,11.151,27.324,11.435z"/>
<path fill="#EE89B4" d="M26.907,24.509c0.324-0.562,0.324-1.254,0-1.816l-2.731-4.73c-0.324-0.562-0.924-0.908-1.573-0.908h-5.461
	c-0.649,0-1.248,0.346-1.573,0.908l-1.717,2.974h1.127c0.557,0,1.072,0.297,1.351,0.78l3.473,6.016c0.279,0.482,0.279,1.078,0,1.561
	l-0.493,0.854h3.294c0.649,0,1.248-0.347,1.573-0.907L26.907,24.509z"/>
<path fill="#286893" d="M19.803,27.732l-3.473-6.017c-0.279-0.483-0.794-0.78-1.351-0.78h-1.127l-1.014,1.755
	c-0.324,0.562-0.324,1.254,0,1.816l2.731,4.729c0.324,0.562,0.924,0.908,1.573,0.908h2.168l0.493-0.854
	C20.082,28.811,20.082,28.215,19.803,27.732z"/>
<path fill="#4A3E78" d="M19.803,27.732l-3.473-6.017c-0.279-0.483-0.794-0.78-1.351-0.78h-1.127l-1.014,1.755
	c-0.324,0.562-0.324,1.254,0,1.816l2.731,4.729c0.324,0.562,0.924,0.908,1.573,0.908h2.168l0.493-0.854
	C20.082,28.811,20.082,28.215,19.803,27.732z"/>
<path fill="#A4C96E" d="M46.16,14.638h4.737l0.17-0.294c0.391-0.677,0.391-1.51,0-2.186l-2.659-4.605
	c-0.391-0.677-1.112-1.093-1.893-1.093h-5.317c-0.781,0-1.503,0.417-1.893,1.093l-2.659,4.605c-0.391,0.676-0.391,1.51,0,2.186
	l2.659,4.605c0.391,0.676,1.112,1.093,1.893,1.093h1.119l2.758-4.777C45.298,14.877,45.712,14.638,46.16,14.638z"/>
<path fill="#EE89B4" d="M55.621,20.101l-2.792-4.835c-0.224-0.388-0.638-0.627-1.086-0.627h-0.847l-2.489,4.311
	c-0.391,0.676-1.112,1.093-1.893,1.093h-4.198l-0.034,0.058c-0.224,0.388-0.224,0.866,0,1.254l2.792,4.834
	c0.224,0.389,0.638,0.627,1.086,0.627h5.583c0.448,0,0.862-0.238,1.086-0.627l2.792-4.834
	C55.845,20.967,55.845,20.489,55.621,20.101z"/>
<path fill="#9BC76D" d="M48.407,18.949l2.489-4.311H46.16c-0.448,0-0.862,0.239-1.086,0.627l-2.758,4.777h4.198
	C47.295,20.042,48.017,19.626,48.407,18.949z"/>
<path fill="#A27156" d="M48.407,18.949l2.489-4.311H46.16c-0.448,0-0.862,0.239-1.086,0.627l-2.758,4.777h4.198
	C47.295,20.042,48.017,19.626,48.407,18.949z"/>
<g>
	<path fill="#034D7F" d="M69.393,26.924V10.871h1.445V25.59h8.071v1.334H69.393z"/>
	<path fill="#034D7F" d="M82.784,12.7h-1.557v-1.668h1.557V12.7z M82.674,15.924v11.161H81.34V15.924H82.674z"/>
	<path fill="#034D7F" d="M86.255,15.924l3.847,9.316l3.713-9.316h1.468l-4.425,11.161h-1.512l-4.559-11.161H86.255z"/>
	<path fill="#034D7F" d="M98.846,12.7h-1.557v-1.668h1.557V12.7z M98.736,15.924v11.161h-1.334V15.924H98.736z"/>
	<path fill="#034D7F" d="M103.65,27.085h-1.334v-8.648c0-0.867-0.064-1.758-0.109-2.513h1.381l0.064,1.646l0.045,0.043
		c0.777-1.378,2.047-2.022,3.49-2.022c3.646,0,3.936,3.223,3.936,4.513v6.981h-1.334v-7.204c0-1.935-1.111-3.069-2.936-3.069
		c-2.201,0-3.203,1.845-3.203,3.847V27.085z"/>
	<g>
		<path fill="#034D7F" d="M122.113,23.146c-0.439,1.474-1.455,2.672-3.271,2.672c-2.444,0-3.489-2.468-3.489-4.513
			c0-2.046,1.022-4.492,3.446-4.492c0.595,0,1.113,0.142,1.56,0.388l0,0l0.947-0.68c-0.72-0.592-1.578-0.929-2.64-0.929
			c-3.401,0-4.758,2.801-4.758,5.824c0,3.069,1.442,5.625,4.801,5.625c1.447,0,2.979-0.777,3.623-2.089h0.045v2.089
			c-0.045,1.868-1.646,3.092-3.379,3.092c-1.424,0-3.002-0.445-3.158-1.779h-1.444c0,2.312,2.401,3.002,4.426,3.002
			c1.045,0,1.646-0.09,2.535-0.512c2.469-1.156,2.356-3.492,2.356-5.715v-1.982L122.113,23.146L122.113,23.146z"/>
	</g>
</g>
<path fill="#034D7F" d="M142.174,25.708c-0.711,1.021-1.756,1.711-3.445,1.711c-1.11,0-3.27-0.844-3.67-2.468
	c-0.176-0.69-0.223-1.401-0.223-1.778v-7.249h1.873c0.809,0,1.463,0.656,1.463,1.464v5.227c0.021,1.202,0.355,2.58,2.002,2.58
	c1.045,0,1.957-0.956,2-2.58v-6.691h3.336v9.161c0.023,0.666,0.066,1.334,0.133,2.001h-3.334L142.174,25.708z"/>
<path fill="#034D7F" d="M149.32,15.924V11.7l1.193-0.031c1.174-0.031,2.141,0.912,2.141,2.085v2.17h2.514v2.223h-2.514v5.18
	c0,1.468,0.225,1.868,1.379,1.868c0.357,0,0.713-0.043,1.068-0.067v1.957c-0.379,0.177-2.156,0.333-2.623,0.333
	c-2.603,0-3.158-1.355-3.158-3.78v-5.491h-2.246v-2.223H149.32z"/>
<path fill="#034D7F" d="M164.422,25.708c-0.713,1.021-1.756,1.711-3.445,1.711c-1.113,0-3.27-0.844-3.67-2.468
	c-0.178-0.69-0.223-1.401-0.223-1.778v-7.249h1.299c1.125,0,2.037,0.912,2.037,2.037v4.654c0.021,1.202,0.355,2.58,2.002,2.58
	c1.045,0,1.957-0.956,2-2.58v-6.691h3.336v9.161c0.023,0.666,0.066,1.334,0.133,2.001h-3.334L164.422,25.708z"/>
<path fill="#034D7F" d="M171.852,15.924c0.933,0,1.695,0.738,1.728,1.669l0.012,0.354h0.046c0.711-1.756,2.133-2.2,3.801-2.156
	v2.958h-1.443c-0.557,0.043-1.291,0.355-1.625,0.822c-0.355,0.623-0.422,1.246-0.445,1.979v5.536h-3.311l-0.023-8.938
	c0-0.467-0.068-1.401-0.111-2.223L171.852,15.924L171.852,15.924z"/>
<path fill="#034D7F" d="M182.332,22.395c0,1.445,0.201,2.801,1.914,2.801c1.154,0,1.732-0.422,2.043-1.445h3.002
	c-0.287,2.757-2.445,3.668-5.045,3.668c-3.826,0-5.359-2.156-5.359-5.891c0-3.358,1.957-5.936,5.359-5.936
	c2.088,0,3.822,0.711,4.758,2.667c0.311,0.623,0.467,1.291,0.555,2.002c0.09,0.688,0.09,1.399,0.09,2.134H182.332z M186.201,20.171
	c0-1.224-0.334-2.357-1.955-2.357c-1.535,0-1.869,1.133-1.914,2.357H186.201z"/>
<path fill="#034D7F" d="M129.885,13.941h3.586c1.094,0,1.98-0.887,1.98-1.981v-0.928h-9.803c-1.068,0-1.935,0.866-1.935,1.934v0.975
	h3.447H129.885z"/>
<path fill="#034D7F" d="M123.266,19.095v1.143h3.896v-0.001h2.775c1.008,0,1.824-0.817,1.824-1.824v-1.146h-4.601l-2.056-0.006
	C124.092,17.256,123.266,18.079,123.266,19.095z"/>
<g>
	<g>
		<path fill="#034D7F" d="M196.535,22.197h-3.34V9.047h1.873c0.811,0,1.467,0.656,1.467,1.466V22.197L196.535,22.197z"/>
	</g>
	<g>
		<path fill="#034D7F" d="M196.535,27.122h-1.666c-0.926,0-1.674-0.749-1.674-1.672v-1.887h3.34V27.122z"/>
	</g>
</g>
</svg>
