M48
;DRILL file {KiCad 4.0.1-stable} date 2016 April 12, Tuesday 17:46:03
;FORMAT={-:-/ absolute / metric / decimal}
FMAT,2
METRIC,TZ
T1C0.800
T2C0.813
T3C1.001
T4C1.016
T5C2.301
%
G90
G05
M71
T1
X133.5Y-111.5
X138.5Y-119.5
X140.5Y-119.5
X143.5Y-112.5
X143.5Y-116.
X146.Y-110.5
X151.5Y-112.5
X154.Y-127.5
X164.Y-112.
T2
X138.96Y-151.
X138.96Y-152.999
X141.5Y-151.
X141.5Y-152.999
T3
X138.5Y-125.38
X138.5Y-133.
X143.5Y-125.38
X143.5Y-133.
T4
X133.Y-129.5
X133.Y-132.04
X133.5Y-105.16
X133.5Y-107.7
X133.5Y-117.
X133.5Y-119.54
X136.04Y-105.16
X136.04Y-107.7
X138.58Y-105.16
X138.58Y-107.7
X141.12Y-105.16
X141.12Y-107.7
X143.66Y-105.16
X143.66Y-107.7
X146.2Y-105.16
X146.2Y-107.7
X148.74Y-105.16
X148.74Y-107.7
X151.28Y-105.16
X151.28Y-107.7
X151.5Y-122.
X151.5Y-132.5
X153.82Y-105.16
X153.82Y-107.7
X154.04Y-122.
X154.04Y-132.5
X156.36Y-105.16
X156.36Y-107.7
X156.58Y-122.
X156.58Y-132.5
X158.9Y-105.16
X158.9Y-107.7
X161.44Y-105.16
X161.44Y-107.7
X163.98Y-105.16
X163.98Y-107.7
X166.52Y-105.16
X166.52Y-107.7
X169.06Y-105.16
X169.06Y-107.7
X171.6Y-105.16
X171.6Y-107.7
X174.14Y-105.16
X174.14Y-107.7
X176.68Y-105.16
X176.68Y-107.7
X179.22Y-105.16
X179.22Y-107.7
X181.76Y-105.16
X181.76Y-107.7
T5
X134.231Y-155.699
X146.229Y-155.699
T0
M30
