G04 #@! TF.FileFunction,Copper,L1,Top,Signal*
%FSLAX46Y46*%
G04 Gerber Fmt 4.6, Leading zero omitted, Abs format (unit mm)*
G04 Created by KiCad (PCBNEW 4.0.1-stable) date 2016 April 13, Wednesday 16:03:14*
%MOMM*%
G01*
G04 APERTURE LIST*
%ADD10C,0.100000*%
%ADD11C,0.300000*%
%ADD12C,0.150000*%
%ADD13R,1.727200X1.727200*%
%ADD14O,1.727200X1.727200*%
%ADD15R,1.727200X2.032000*%
%ADD16O,1.727200X2.032000*%
%ADD17R,1.300000X1.300000*%
%ADD18C,1.300000*%
%ADD19C,1.524000*%
%ADD20C,2.700020*%
%ADD21R,2.032000X2.032000*%
%ADD22O,2.032000X2.032000*%
%ADD23C,1.998980*%
%ADD24C,1.400000*%
%ADD25C,0.800000*%
G04 APERTURE END LIST*
D10*
D11*
X132071429Y-140978571D02*
X132071429Y-139478571D01*
X132071429Y-140192857D02*
X132928572Y-140192857D01*
X132928572Y-140978571D02*
X132928572Y-139478571D01*
X133500001Y-139978571D02*
X133857144Y-140978571D01*
X134214286Y-139978571D02*
X133857144Y-140978571D01*
X133714286Y-141335714D01*
X133642858Y-141407143D01*
X133500001Y-141478571D01*
X134785715Y-140978571D02*
X134785715Y-139478571D01*
X134785715Y-140050000D02*
X134928572Y-139978571D01*
X135214286Y-139978571D01*
X135357143Y-140050000D01*
X135428572Y-140121429D01*
X135500001Y-140264286D01*
X135500001Y-140692857D01*
X135428572Y-140835714D01*
X135357143Y-140907143D01*
X135214286Y-140978571D01*
X134928572Y-140978571D01*
X134785715Y-140907143D01*
X136142858Y-140978571D02*
X136142858Y-139978571D01*
X136142858Y-140264286D02*
X136214286Y-140121429D01*
X136285715Y-140050000D01*
X136428572Y-139978571D01*
X136571429Y-139978571D01*
X137071429Y-140978571D02*
X137071429Y-139978571D01*
X137071429Y-139478571D02*
X137000000Y-139550000D01*
X137071429Y-139621429D01*
X137142857Y-139550000D01*
X137071429Y-139478571D01*
X137071429Y-139621429D01*
X138428572Y-140978571D02*
X138428572Y-139478571D01*
X138428572Y-140907143D02*
X138285715Y-140978571D01*
X138000001Y-140978571D01*
X137857143Y-140907143D01*
X137785715Y-140835714D01*
X137714286Y-140692857D01*
X137714286Y-140264286D01*
X137785715Y-140121429D01*
X137857143Y-140050000D01*
X138000001Y-139978571D01*
X138285715Y-139978571D01*
X138428572Y-140050000D01*
X141000001Y-140978571D02*
X140285715Y-140978571D01*
X140285715Y-139478571D01*
X142071429Y-140907143D02*
X141928572Y-140978571D01*
X141642858Y-140978571D01*
X141500001Y-140907143D01*
X141428572Y-140764286D01*
X141428572Y-140192857D01*
X141500001Y-140050000D01*
X141642858Y-139978571D01*
X141928572Y-139978571D01*
X142071429Y-140050000D01*
X142142858Y-140192857D01*
X142142858Y-140335714D01*
X141428572Y-140478571D01*
X142571429Y-139978571D02*
X143142858Y-139978571D01*
X142785715Y-139478571D02*
X142785715Y-140764286D01*
X142857143Y-140907143D01*
X143000001Y-140978571D01*
X143142858Y-140978571D01*
X143428572Y-139978571D02*
X144000001Y-139978571D01*
X143642858Y-139478571D02*
X143642858Y-140764286D01*
X143714286Y-140907143D01*
X143857144Y-140978571D01*
X144000001Y-140978571D01*
X145071429Y-140907143D02*
X144928572Y-140978571D01*
X144642858Y-140978571D01*
X144500001Y-140907143D01*
X144428572Y-140764286D01*
X144428572Y-140192857D01*
X144500001Y-140050000D01*
X144642858Y-139978571D01*
X144928572Y-139978571D01*
X145071429Y-140050000D01*
X145142858Y-140192857D01*
X145142858Y-140335714D01*
X144428572Y-140478571D01*
X145785715Y-140978571D02*
X145785715Y-139978571D01*
X145785715Y-140264286D02*
X145857143Y-140121429D01*
X145928572Y-140050000D01*
X146071429Y-139978571D01*
X146214286Y-139978571D01*
X146714286Y-140978571D02*
X146714286Y-139478571D01*
X146714286Y-140050000D02*
X146857143Y-139978571D01*
X147142857Y-139978571D01*
X147285714Y-140050000D01*
X147357143Y-140121429D01*
X147428572Y-140264286D01*
X147428572Y-140692857D01*
X147357143Y-140835714D01*
X147285714Y-140907143D01*
X147142857Y-140978571D01*
X146857143Y-140978571D01*
X146714286Y-140907143D01*
X148285715Y-140978571D02*
X148142857Y-140907143D01*
X148071429Y-140835714D01*
X148000000Y-140692857D01*
X148000000Y-140264286D01*
X148071429Y-140121429D01*
X148142857Y-140050000D01*
X148285715Y-139978571D01*
X148500000Y-139978571D01*
X148642857Y-140050000D01*
X148714286Y-140121429D01*
X148785715Y-140264286D01*
X148785715Y-140692857D01*
X148714286Y-140835714D01*
X148642857Y-140907143D01*
X148500000Y-140978571D01*
X148285715Y-140978571D01*
X149285715Y-140978571D02*
X150071429Y-139978571D01*
X149285715Y-139978571D02*
X150071429Y-140978571D01*
X132464286Y-143378571D02*
X132464286Y-141878571D01*
X132464286Y-142592857D02*
X133321429Y-142592857D01*
X133321429Y-143378571D02*
X133321429Y-141878571D01*
X134607143Y-143307143D02*
X134464286Y-143378571D01*
X134178572Y-143378571D01*
X134035715Y-143307143D01*
X133964286Y-143164286D01*
X133964286Y-142592857D01*
X134035715Y-142450000D01*
X134178572Y-142378571D01*
X134464286Y-142378571D01*
X134607143Y-142450000D01*
X134678572Y-142592857D01*
X134678572Y-142735714D01*
X133964286Y-142878571D01*
X135964286Y-143378571D02*
X135964286Y-142592857D01*
X135892857Y-142450000D01*
X135750000Y-142378571D01*
X135464286Y-142378571D01*
X135321429Y-142450000D01*
X135964286Y-143307143D02*
X135821429Y-143378571D01*
X135464286Y-143378571D01*
X135321429Y-143307143D01*
X135250000Y-143164286D01*
X135250000Y-143021429D01*
X135321429Y-142878571D01*
X135464286Y-142807143D01*
X135821429Y-142807143D01*
X135964286Y-142735714D01*
X137321429Y-143378571D02*
X137321429Y-141878571D01*
X137321429Y-143307143D02*
X137178572Y-143378571D01*
X136892858Y-143378571D01*
X136750000Y-143307143D01*
X136678572Y-143235714D01*
X136607143Y-143092857D01*
X136607143Y-142664286D01*
X136678572Y-142521429D01*
X136750000Y-142450000D01*
X136892858Y-142378571D01*
X137178572Y-142378571D01*
X137321429Y-142450000D01*
X138035715Y-143378571D02*
X138035715Y-141878571D01*
X138035715Y-142450000D02*
X138178572Y-142378571D01*
X138464286Y-142378571D01*
X138607143Y-142450000D01*
X138678572Y-142521429D01*
X138750001Y-142664286D01*
X138750001Y-143092857D01*
X138678572Y-143235714D01*
X138607143Y-143307143D01*
X138464286Y-143378571D01*
X138178572Y-143378571D01*
X138035715Y-143307143D01*
X139607144Y-143378571D02*
X139464286Y-143307143D01*
X139392858Y-143235714D01*
X139321429Y-143092857D01*
X139321429Y-142664286D01*
X139392858Y-142521429D01*
X139464286Y-142450000D01*
X139607144Y-142378571D01*
X139821429Y-142378571D01*
X139964286Y-142450000D01*
X140035715Y-142521429D01*
X140107144Y-142664286D01*
X140107144Y-143092857D01*
X140035715Y-143235714D01*
X139964286Y-143307143D01*
X139821429Y-143378571D01*
X139607144Y-143378571D01*
X141392858Y-143378571D02*
X141392858Y-142592857D01*
X141321429Y-142450000D01*
X141178572Y-142378571D01*
X140892858Y-142378571D01*
X140750001Y-142450000D01*
X141392858Y-143307143D02*
X141250001Y-143378571D01*
X140892858Y-143378571D01*
X140750001Y-143307143D01*
X140678572Y-143164286D01*
X140678572Y-143021429D01*
X140750001Y-142878571D01*
X140892858Y-142807143D01*
X141250001Y-142807143D01*
X141392858Y-142735714D01*
X142107144Y-143378571D02*
X142107144Y-142378571D01*
X142107144Y-142664286D02*
X142178572Y-142521429D01*
X142250001Y-142450000D01*
X142392858Y-142378571D01*
X142535715Y-142378571D01*
X143678572Y-143378571D02*
X143678572Y-141878571D01*
X143678572Y-143307143D02*
X143535715Y-143378571D01*
X143250001Y-143378571D01*
X143107143Y-143307143D01*
X143035715Y-143235714D01*
X142964286Y-143092857D01*
X142964286Y-142664286D01*
X143035715Y-142521429D01*
X143107143Y-142450000D01*
X143250001Y-142378571D01*
X143535715Y-142378571D01*
X143678572Y-142450000D01*
X145392858Y-142378571D02*
X145750001Y-143378571D01*
X146107143Y-142378571D01*
X146964286Y-141878571D02*
X147107143Y-141878571D01*
X147250000Y-141950000D01*
X147321429Y-142021429D01*
X147392858Y-142164286D01*
X147464286Y-142450000D01*
X147464286Y-142807143D01*
X147392858Y-143092857D01*
X147321429Y-143235714D01*
X147250000Y-143307143D01*
X147107143Y-143378571D01*
X146964286Y-143378571D01*
X146821429Y-143307143D01*
X146750000Y-143235714D01*
X146678572Y-143092857D01*
X146607143Y-142807143D01*
X146607143Y-142450000D01*
X146678572Y-142164286D01*
X146750000Y-142021429D01*
X146821429Y-141950000D01*
X146964286Y-141878571D01*
X148107143Y-143235714D02*
X148178571Y-143307143D01*
X148107143Y-143378571D01*
X148035714Y-143307143D01*
X148107143Y-143235714D01*
X148107143Y-143378571D01*
X149607143Y-143378571D02*
X148750000Y-143378571D01*
X149178572Y-143378571D02*
X149178572Y-141878571D01*
X149035715Y-142092857D01*
X148892857Y-142235714D01*
X148750000Y-142307143D01*
X130107143Y-131785714D02*
X130178571Y-131571428D01*
X130178571Y-131214285D01*
X130107143Y-131071428D01*
X130035714Y-130999999D01*
X129892857Y-130928571D01*
X129750000Y-130928571D01*
X129607143Y-130999999D01*
X129535714Y-131071428D01*
X129464286Y-131214285D01*
X129392857Y-131499999D01*
X129321429Y-131642857D01*
X129250000Y-131714285D01*
X129107143Y-131785714D01*
X128964286Y-131785714D01*
X128821429Y-131714285D01*
X128750000Y-131642857D01*
X128678571Y-131499999D01*
X128678571Y-131142857D01*
X128750000Y-130928571D01*
X128678571Y-130428571D02*
X130178571Y-130071428D01*
X129107143Y-129785714D01*
X130178571Y-129500000D01*
X128678571Y-129142857D01*
X130678571Y-119642857D02*
X129178571Y-119642857D01*
X129178571Y-119071429D01*
X129250000Y-118928571D01*
X129321429Y-118857143D01*
X129464286Y-118785714D01*
X129678571Y-118785714D01*
X129821429Y-118857143D01*
X129892857Y-118928571D01*
X129964286Y-119071429D01*
X129964286Y-119642857D01*
X130678571Y-117285714D02*
X129964286Y-117785714D01*
X130678571Y-118142857D02*
X129178571Y-118142857D01*
X129178571Y-117571429D01*
X129250000Y-117428571D01*
X129321429Y-117357143D01*
X129464286Y-117285714D01*
X129678571Y-117285714D01*
X129821429Y-117357143D01*
X129892857Y-117428571D01*
X129964286Y-117571429D01*
X129964286Y-118142857D01*
X150714286Y-137107143D02*
X150928572Y-137178571D01*
X151285715Y-137178571D01*
X151428572Y-137107143D01*
X151500001Y-137035714D01*
X151571429Y-136892857D01*
X151571429Y-136750000D01*
X151500001Y-136607143D01*
X151428572Y-136535714D01*
X151285715Y-136464286D01*
X151000001Y-136392857D01*
X150857143Y-136321429D01*
X150785715Y-136250000D01*
X150714286Y-136107143D01*
X150714286Y-135964286D01*
X150785715Y-135821429D01*
X150857143Y-135750000D01*
X151000001Y-135678571D01*
X151357143Y-135678571D01*
X151571429Y-135750000D01*
X152214286Y-136392857D02*
X152714286Y-136392857D01*
X152928572Y-137178571D02*
X152214286Y-137178571D01*
X152214286Y-135678571D01*
X152928572Y-135678571D01*
X154428572Y-137178571D02*
X153928572Y-136464286D01*
X153571429Y-137178571D02*
X153571429Y-135678571D01*
X154142857Y-135678571D01*
X154285715Y-135750000D01*
X154357143Y-135821429D01*
X154428572Y-135964286D01*
X154428572Y-136178571D01*
X154357143Y-136321429D01*
X154285715Y-136392857D01*
X154142857Y-136464286D01*
X153571429Y-136464286D01*
X154857143Y-135678571D02*
X155357143Y-137178571D01*
X155857143Y-135678571D01*
X156642857Y-135678571D02*
X156928571Y-135678571D01*
X157071429Y-135750000D01*
X157214286Y-135892857D01*
X157285714Y-136178571D01*
X157285714Y-136678571D01*
X157214286Y-136964286D01*
X157071429Y-137107143D01*
X156928571Y-137178571D01*
X156642857Y-137178571D01*
X156500000Y-137107143D01*
X156357143Y-136964286D01*
X156285714Y-136678571D01*
X156285714Y-136178571D01*
X156357143Y-135892857D01*
X156500000Y-135750000D01*
X156642857Y-135678571D01*
X153035715Y-119178571D02*
X152321429Y-119178571D01*
X152321429Y-117678571D01*
X153535715Y-118392857D02*
X154035715Y-118392857D01*
X154250001Y-119178571D02*
X153535715Y-119178571D01*
X153535715Y-117678571D01*
X154250001Y-117678571D01*
X154892858Y-119178571D02*
X154892858Y-117678571D01*
X155250001Y-117678571D01*
X155464286Y-117750000D01*
X155607144Y-117892857D01*
X155678572Y-118035714D01*
X155750001Y-118321429D01*
X155750001Y-118535714D01*
X155678572Y-118821429D01*
X155607144Y-118964286D01*
X155464286Y-119107143D01*
X155250001Y-119178571D01*
X154892858Y-119178571D01*
D12*
X125000000Y-98500000D02*
X125000000Y-103000000D01*
X191000000Y-98500000D02*
X125000000Y-98500000D01*
X191000000Y-103050000D02*
X191000000Y-98450000D01*
X129494427Y-106600000D02*
G75*
G03X129494427Y-106600000I-894427J0D01*
G01*
X187494427Y-106600000D02*
G75*
G03X187494427Y-106600000I-894427J0D01*
G01*
X129494427Y-156000000D02*
G75*
G03X129494427Y-156000000I-894427J0D01*
G01*
X166500000Y-159500000D02*
X125000000Y-159500000D01*
X191000000Y-134500000D02*
X191000000Y-103000000D01*
X166500000Y-134500000D02*
X191000000Y-134500000D01*
X166500000Y-159500000D02*
X166500000Y-134500000D01*
X125000000Y-103000000D02*
X125000000Y-159500000D01*
D13*
X133500000Y-107700000D03*
D14*
X133500000Y-105160000D03*
X136040000Y-107700000D03*
X136040000Y-105160000D03*
X138580000Y-107700000D03*
X138580000Y-105160000D03*
X141120000Y-107700000D03*
X141120000Y-105160000D03*
X143660000Y-107700000D03*
X143660000Y-105160000D03*
X146200000Y-107700000D03*
X146200000Y-105160000D03*
X148740000Y-107700000D03*
X148740000Y-105160000D03*
X151280000Y-107700000D03*
X151280000Y-105160000D03*
X153820000Y-107700000D03*
X153820000Y-105160000D03*
X156360000Y-107700000D03*
X156360000Y-105160000D03*
X158900000Y-107700000D03*
X158900000Y-105160000D03*
X161440000Y-107700000D03*
X161440000Y-105160000D03*
X163980000Y-107700000D03*
X163980000Y-105160000D03*
X166520000Y-107700000D03*
X166520000Y-105160000D03*
X169060000Y-107700000D03*
X169060000Y-105160000D03*
X171600000Y-107700000D03*
X171600000Y-105160000D03*
X174140000Y-107700000D03*
X174140000Y-105160000D03*
X176680000Y-107700000D03*
X176680000Y-105160000D03*
X179220000Y-107700000D03*
X179220000Y-105160000D03*
X181760000Y-107700000D03*
X181760000Y-105160000D03*
D15*
X151500000Y-132500000D03*
D16*
X154040000Y-132500000D03*
X156580000Y-132500000D03*
D17*
X138500000Y-119500000D03*
D18*
X140500000Y-119500000D03*
D19*
X138960000Y-151000000D03*
X141500000Y-151000000D03*
X141500000Y-152998980D03*
X138960000Y-152998980D03*
D20*
X134230520Y-155699000D03*
X146229480Y-155699000D03*
D15*
X151500000Y-122000000D03*
D16*
X154040000Y-122000000D03*
X156580000Y-122000000D03*
D21*
X133000000Y-129500000D03*
D22*
X133000000Y-132040000D03*
D21*
X133500000Y-117000000D03*
D22*
X133500000Y-119540000D03*
D23*
X143500000Y-133000000D03*
X143500000Y-125380000D03*
X138500000Y-133000000D03*
X138500000Y-125380000D03*
D24*
X133500000Y-111500000D03*
X143500000Y-112500000D03*
X164000000Y-112000000D03*
X154000000Y-127500000D03*
X146000000Y-110500000D03*
X143500000Y-116000000D03*
X151500000Y-112500000D03*
D25*
X133500000Y-107700000D02*
X133500000Y-111500000D01*
X143660000Y-112340000D02*
X143660000Y-107700000D01*
X143500000Y-112500000D02*
X143660000Y-112340000D01*
X163980000Y-111980000D02*
X163980000Y-107700000D01*
X164000000Y-112000000D02*
X163980000Y-111980000D01*
X146200000Y-102800000D02*
X146200000Y-105160000D01*
X147000000Y-102000000D02*
X146200000Y-102800000D01*
X183000000Y-102000000D02*
X147000000Y-102000000D01*
X184500000Y-103500000D02*
X183000000Y-102000000D01*
X184500000Y-112000000D02*
X184500000Y-103500000D01*
X170500000Y-126000000D02*
X184500000Y-112000000D01*
X155500000Y-126000000D02*
X170500000Y-126000000D01*
X154000000Y-127500000D02*
X155500000Y-126000000D01*
X146200000Y-110300000D02*
X146200000Y-107700000D01*
X146000000Y-110500000D02*
X146200000Y-110300000D01*
X141120000Y-113620000D02*
X141120000Y-107700000D01*
X143500000Y-116000000D02*
X141120000Y-113620000D01*
X151280000Y-112280000D02*
X151280000Y-107700000D01*
X151500000Y-112500000D02*
X151280000Y-112280000D01*
M02*
