M48
;DRILL file {KiCad 4.0.1-stable} date 2016 February 23, Tuesday 14:46:10
;FORMAT={-:-/ absolute / metric / decimal}
FMAT,2
METRIC,TZ
T1C0.800
T2C1.001
T3C1.016
%
G90
G05
M71
T1
X78.74Y-80.645
X78.74Y-83.185
X78.74Y-85.725
X78.74Y-88.265
X78.74Y-90.805
X78.74Y-93.345
X78.74Y-95.885
X78.74Y-98.425
X86.36Y-80.645
X86.36Y-83.185
X86.36Y-85.725
X86.36Y-88.265
X86.36Y-90.805
X86.36Y-93.345
X86.36Y-95.885
X86.36Y-98.425
T2
X96.52Y-79.375
X96.52Y-99.695
X99.06Y-79.375
X99.06Y-99.695
X116.84Y-60.96
X116.84Y-63.5
X116.84Y-115.57
X116.84Y-118.11
X133.35Y-60.96
X133.35Y-63.5
X133.35Y-115.57
X133.35Y-118.11
X151.13Y-79.375
X151.13Y-99.695
X153.67Y-79.375
X153.67Y-99.695
T3
X78.74Y-66.04
X78.74Y-68.58
T0
M30
