G04 #@! TF.FileFunction,Copper,L1,Top,Signal*
%FSLAX46Y46*%
G04 Gerber Fmt 4.6, Leading zero omitted, Abs format (unit mm)*
G04 Created by KiCad (PCBNEW 4.0.1-stable) date 2016 February 17, Wednesday 09:23:28*
%MOMM*%
G01*
G04 APERTURE LIST*
%ADD10C,0.100000*%
%ADD11C,0.300000*%
%ADD12R,2.000000X2.000000*%
%ADD13C,2.000000*%
%ADD14O,1.600000X1.600000*%
%ADD15R,2.032000X2.032000*%
%ADD16O,2.032000X2.032000*%
G04 APERTURE END LIST*
D10*
D11*
X81891429Y-68687143D02*
X83034286Y-68687143D01*
X82462857Y-69258571D02*
X82462857Y-68115714D01*
X84462858Y-67758571D02*
X83748572Y-67758571D01*
X83677143Y-68472857D01*
X83748572Y-68401429D01*
X83891429Y-68330000D01*
X84248572Y-68330000D01*
X84391429Y-68401429D01*
X84462858Y-68472857D01*
X84534286Y-68615714D01*
X84534286Y-68972857D01*
X84462858Y-69115714D01*
X84391429Y-69187143D01*
X84248572Y-69258571D01*
X83891429Y-69258571D01*
X83748572Y-69187143D01*
X83677143Y-69115714D01*
X84962857Y-67758571D02*
X85462857Y-69258571D01*
X85962857Y-67758571D01*
X82677143Y-65290000D02*
X82534286Y-65218571D01*
X82320000Y-65218571D01*
X82105715Y-65290000D01*
X81962857Y-65432857D01*
X81891429Y-65575714D01*
X81820000Y-65861429D01*
X81820000Y-66075714D01*
X81891429Y-66361429D01*
X81962857Y-66504286D01*
X82105715Y-66647143D01*
X82320000Y-66718571D01*
X82462857Y-66718571D01*
X82677143Y-66647143D01*
X82748572Y-66575714D01*
X82748572Y-66075714D01*
X82462857Y-66075714D01*
X83391429Y-66718571D02*
X83391429Y-65218571D01*
X84248572Y-66718571D01*
X84248572Y-65218571D01*
X84962858Y-66718571D02*
X84962858Y-65218571D01*
X85320001Y-65218571D01*
X85534286Y-65290000D01*
X85677144Y-65432857D01*
X85748572Y-65575714D01*
X85820001Y-65861429D01*
X85820001Y-66075714D01*
X85748572Y-66361429D01*
X85677144Y-66504286D01*
X85534286Y-66647143D01*
X85320001Y-66718571D01*
X84962858Y-66718571D01*
X73621429Y-108698571D02*
X73621429Y-107198571D01*
X73621429Y-107912857D02*
X74478572Y-107912857D01*
X74478572Y-108698571D02*
X74478572Y-107198571D01*
X75050001Y-107698571D02*
X75407144Y-108698571D01*
X75764286Y-107698571D02*
X75407144Y-108698571D01*
X75264286Y-109055714D01*
X75192858Y-109127143D01*
X75050001Y-109198571D01*
X76335715Y-108698571D02*
X76335715Y-107198571D01*
X76335715Y-107770000D02*
X76478572Y-107698571D01*
X76764286Y-107698571D01*
X76907143Y-107770000D01*
X76978572Y-107841429D01*
X77050001Y-107984286D01*
X77050001Y-108412857D01*
X76978572Y-108555714D01*
X76907143Y-108627143D01*
X76764286Y-108698571D01*
X76478572Y-108698571D01*
X76335715Y-108627143D01*
X77692858Y-108698571D02*
X77692858Y-107698571D01*
X77692858Y-107984286D02*
X77764286Y-107841429D01*
X77835715Y-107770000D01*
X77978572Y-107698571D01*
X78121429Y-107698571D01*
X78621429Y-108698571D02*
X78621429Y-107698571D01*
X78621429Y-107198571D02*
X78550000Y-107270000D01*
X78621429Y-107341429D01*
X78692857Y-107270000D01*
X78621429Y-107198571D01*
X78621429Y-107341429D01*
X79978572Y-108698571D02*
X79978572Y-107198571D01*
X79978572Y-108627143D02*
X79835715Y-108698571D01*
X79550001Y-108698571D01*
X79407143Y-108627143D01*
X79335715Y-108555714D01*
X79264286Y-108412857D01*
X79264286Y-107984286D01*
X79335715Y-107841429D01*
X79407143Y-107770000D01*
X79550001Y-107698571D01*
X79835715Y-107698571D01*
X79978572Y-107770000D01*
X82550001Y-108698571D02*
X81835715Y-108698571D01*
X81835715Y-107198571D01*
X83621429Y-108627143D02*
X83478572Y-108698571D01*
X83192858Y-108698571D01*
X83050001Y-108627143D01*
X82978572Y-108484286D01*
X82978572Y-107912857D01*
X83050001Y-107770000D01*
X83192858Y-107698571D01*
X83478572Y-107698571D01*
X83621429Y-107770000D01*
X83692858Y-107912857D01*
X83692858Y-108055714D01*
X82978572Y-108198571D01*
X84121429Y-107698571D02*
X84692858Y-107698571D01*
X84335715Y-107198571D02*
X84335715Y-108484286D01*
X84407143Y-108627143D01*
X84550001Y-108698571D01*
X84692858Y-108698571D01*
X84978572Y-107698571D02*
X85550001Y-107698571D01*
X85192858Y-107198571D02*
X85192858Y-108484286D01*
X85264286Y-108627143D01*
X85407144Y-108698571D01*
X85550001Y-108698571D01*
X86621429Y-108627143D02*
X86478572Y-108698571D01*
X86192858Y-108698571D01*
X86050001Y-108627143D01*
X85978572Y-108484286D01*
X85978572Y-107912857D01*
X86050001Y-107770000D01*
X86192858Y-107698571D01*
X86478572Y-107698571D01*
X86621429Y-107770000D01*
X86692858Y-107912857D01*
X86692858Y-108055714D01*
X85978572Y-108198571D01*
X87335715Y-108698571D02*
X87335715Y-107698571D01*
X87335715Y-107984286D02*
X87407143Y-107841429D01*
X87478572Y-107770000D01*
X87621429Y-107698571D01*
X87764286Y-107698571D01*
X88264286Y-108698571D02*
X88264286Y-107198571D01*
X88264286Y-107770000D02*
X88407143Y-107698571D01*
X88692857Y-107698571D01*
X88835714Y-107770000D01*
X88907143Y-107841429D01*
X88978572Y-107984286D01*
X88978572Y-108412857D01*
X88907143Y-108555714D01*
X88835714Y-108627143D01*
X88692857Y-108698571D01*
X88407143Y-108698571D01*
X88264286Y-108627143D01*
X89835715Y-108698571D02*
X89692857Y-108627143D01*
X89621429Y-108555714D01*
X89550000Y-108412857D01*
X89550000Y-107984286D01*
X89621429Y-107841429D01*
X89692857Y-107770000D01*
X89835715Y-107698571D01*
X90050000Y-107698571D01*
X90192857Y-107770000D01*
X90264286Y-107841429D01*
X90335715Y-107984286D01*
X90335715Y-108412857D01*
X90264286Y-108555714D01*
X90192857Y-108627143D01*
X90050000Y-108698571D01*
X89835715Y-108698571D01*
X90835715Y-108698571D02*
X91621429Y-107698571D01*
X90835715Y-107698571D02*
X91621429Y-108698571D01*
X72800001Y-110955714D02*
X72728572Y-111027143D01*
X72514286Y-111098571D01*
X72371429Y-111098571D01*
X72157144Y-111027143D01*
X72014286Y-110884286D01*
X71942858Y-110741429D01*
X71871429Y-110455714D01*
X71871429Y-110241429D01*
X71942858Y-109955714D01*
X72014286Y-109812857D01*
X72157144Y-109670000D01*
X72371429Y-109598571D01*
X72514286Y-109598571D01*
X72728572Y-109670000D01*
X72800001Y-109741429D01*
X74085715Y-111098571D02*
X74085715Y-110312857D01*
X74014286Y-110170000D01*
X73871429Y-110098571D01*
X73585715Y-110098571D01*
X73442858Y-110170000D01*
X74085715Y-111027143D02*
X73942858Y-111098571D01*
X73585715Y-111098571D01*
X73442858Y-111027143D01*
X73371429Y-110884286D01*
X73371429Y-110741429D01*
X73442858Y-110598571D01*
X73585715Y-110527143D01*
X73942858Y-110527143D01*
X74085715Y-110455714D01*
X74800001Y-111098571D02*
X74800001Y-110098571D01*
X74800001Y-110241429D02*
X74871429Y-110170000D01*
X75014287Y-110098571D01*
X75228572Y-110098571D01*
X75371429Y-110170000D01*
X75442858Y-110312857D01*
X75442858Y-111098571D01*
X75442858Y-110312857D02*
X75514287Y-110170000D01*
X75657144Y-110098571D01*
X75871429Y-110098571D01*
X76014287Y-110170000D01*
X76085715Y-110312857D01*
X76085715Y-111098571D01*
X77371429Y-111027143D02*
X77228572Y-111098571D01*
X76942858Y-111098571D01*
X76800001Y-111027143D01*
X76728572Y-110884286D01*
X76728572Y-110312857D01*
X76800001Y-110170000D01*
X76942858Y-110098571D01*
X77228572Y-110098571D01*
X77371429Y-110170000D01*
X77442858Y-110312857D01*
X77442858Y-110455714D01*
X76728572Y-110598571D01*
X78085715Y-111098571D02*
X78085715Y-110098571D01*
X78085715Y-110384286D02*
X78157143Y-110241429D01*
X78228572Y-110170000D01*
X78371429Y-110098571D01*
X78514286Y-110098571D01*
X79657143Y-111098571D02*
X79657143Y-110312857D01*
X79585714Y-110170000D01*
X79442857Y-110098571D01*
X79157143Y-110098571D01*
X79014286Y-110170000D01*
X79657143Y-111027143D02*
X79514286Y-111098571D01*
X79157143Y-111098571D01*
X79014286Y-111027143D01*
X78942857Y-110884286D01*
X78942857Y-110741429D01*
X79014286Y-110598571D01*
X79157143Y-110527143D01*
X79514286Y-110527143D01*
X79657143Y-110455714D01*
X82014286Y-110312857D02*
X82228572Y-110384286D01*
X82300000Y-110455714D01*
X82371429Y-110598571D01*
X82371429Y-110812857D01*
X82300000Y-110955714D01*
X82228572Y-111027143D01*
X82085714Y-111098571D01*
X81514286Y-111098571D01*
X81514286Y-109598571D01*
X82014286Y-109598571D01*
X82157143Y-109670000D01*
X82228572Y-109741429D01*
X82300000Y-109884286D01*
X82300000Y-110027143D01*
X82228572Y-110170000D01*
X82157143Y-110241429D01*
X82014286Y-110312857D01*
X81514286Y-110312857D01*
X83228572Y-111098571D02*
X83085714Y-111027143D01*
X83014286Y-110955714D01*
X82942857Y-110812857D01*
X82942857Y-110384286D01*
X83014286Y-110241429D01*
X83085714Y-110170000D01*
X83228572Y-110098571D01*
X83442857Y-110098571D01*
X83585714Y-110170000D01*
X83657143Y-110241429D01*
X83728572Y-110384286D01*
X83728572Y-110812857D01*
X83657143Y-110955714D01*
X83585714Y-111027143D01*
X83442857Y-111098571D01*
X83228572Y-111098571D01*
X85014286Y-111098571D02*
X85014286Y-110312857D01*
X84942857Y-110170000D01*
X84800000Y-110098571D01*
X84514286Y-110098571D01*
X84371429Y-110170000D01*
X85014286Y-111027143D02*
X84871429Y-111098571D01*
X84514286Y-111098571D01*
X84371429Y-111027143D01*
X84300000Y-110884286D01*
X84300000Y-110741429D01*
X84371429Y-110598571D01*
X84514286Y-110527143D01*
X84871429Y-110527143D01*
X85014286Y-110455714D01*
X85728572Y-111098571D02*
X85728572Y-110098571D01*
X85728572Y-110384286D02*
X85800000Y-110241429D01*
X85871429Y-110170000D01*
X86014286Y-110098571D01*
X86157143Y-110098571D01*
X87300000Y-111098571D02*
X87300000Y-109598571D01*
X87300000Y-111027143D02*
X87157143Y-111098571D01*
X86871429Y-111098571D01*
X86728571Y-111027143D01*
X86657143Y-110955714D01*
X86585714Y-110812857D01*
X86585714Y-110384286D01*
X86657143Y-110241429D01*
X86728571Y-110170000D01*
X86871429Y-110098571D01*
X87157143Y-110098571D01*
X87300000Y-110170000D01*
X89014286Y-110098571D02*
X89371429Y-111098571D01*
X89728571Y-110098571D01*
X91085714Y-111098571D02*
X90228571Y-111098571D01*
X90657143Y-111098571D02*
X90657143Y-109598571D01*
X90514286Y-109812857D01*
X90371428Y-109955714D01*
X90228571Y-110027143D01*
X91728571Y-110955714D02*
X91799999Y-111027143D01*
X91728571Y-111098571D01*
X91657142Y-111027143D01*
X91728571Y-110955714D01*
X91728571Y-111098571D01*
X93228571Y-111098571D02*
X92371428Y-111098571D01*
X92800000Y-111098571D02*
X92800000Y-109598571D01*
X92657143Y-109812857D01*
X92514285Y-109955714D01*
X92371428Y-110027143D01*
X108752858Y-74338571D02*
X108752858Y-72838571D01*
X109324286Y-72838571D01*
X109467144Y-72910000D01*
X109538572Y-72981429D01*
X109610001Y-73124286D01*
X109610001Y-73338571D01*
X109538572Y-73481429D01*
X109467144Y-73552857D01*
X109324286Y-73624286D01*
X108752858Y-73624286D01*
X110252858Y-74338571D02*
X110252858Y-73338571D01*
X110252858Y-72838571D02*
X110181429Y-72910000D01*
X110252858Y-72981429D01*
X110324286Y-72910000D01*
X110252858Y-72838571D01*
X110252858Y-72981429D01*
X112967144Y-74195714D02*
X112895715Y-74267143D01*
X112681429Y-74338571D01*
X112538572Y-74338571D01*
X112324287Y-74267143D01*
X112181429Y-74124286D01*
X112110001Y-73981429D01*
X112038572Y-73695714D01*
X112038572Y-73481429D01*
X112110001Y-73195714D01*
X112181429Y-73052857D01*
X112324287Y-72910000D01*
X112538572Y-72838571D01*
X112681429Y-72838571D01*
X112895715Y-72910000D01*
X112967144Y-72981429D01*
X114252858Y-74338571D02*
X114252858Y-73552857D01*
X114181429Y-73410000D01*
X114038572Y-73338571D01*
X113752858Y-73338571D01*
X113610001Y-73410000D01*
X114252858Y-74267143D02*
X114110001Y-74338571D01*
X113752858Y-74338571D01*
X113610001Y-74267143D01*
X113538572Y-74124286D01*
X113538572Y-73981429D01*
X113610001Y-73838571D01*
X113752858Y-73767143D01*
X114110001Y-73767143D01*
X114252858Y-73695714D01*
X114967144Y-74338571D02*
X114967144Y-73338571D01*
X114967144Y-73481429D02*
X115038572Y-73410000D01*
X115181430Y-73338571D01*
X115395715Y-73338571D01*
X115538572Y-73410000D01*
X115610001Y-73552857D01*
X115610001Y-74338571D01*
X115610001Y-73552857D02*
X115681430Y-73410000D01*
X115824287Y-73338571D01*
X116038572Y-73338571D01*
X116181430Y-73410000D01*
X116252858Y-73552857D01*
X116252858Y-74338571D01*
X117538572Y-74267143D02*
X117395715Y-74338571D01*
X117110001Y-74338571D01*
X116967144Y-74267143D01*
X116895715Y-74124286D01*
X116895715Y-73552857D01*
X116967144Y-73410000D01*
X117110001Y-73338571D01*
X117395715Y-73338571D01*
X117538572Y-73410000D01*
X117610001Y-73552857D01*
X117610001Y-73695714D01*
X116895715Y-73838571D01*
X118252858Y-74338571D02*
X118252858Y-73338571D01*
X118252858Y-73624286D02*
X118324286Y-73481429D01*
X118395715Y-73410000D01*
X118538572Y-73338571D01*
X118681429Y-73338571D01*
X119824286Y-74338571D02*
X119824286Y-73552857D01*
X119752857Y-73410000D01*
X119610000Y-73338571D01*
X119324286Y-73338571D01*
X119181429Y-73410000D01*
X119824286Y-74267143D02*
X119681429Y-74338571D01*
X119324286Y-74338571D01*
X119181429Y-74267143D01*
X119110000Y-74124286D01*
X119110000Y-73981429D01*
X119181429Y-73838571D01*
X119324286Y-73767143D01*
X119681429Y-73767143D01*
X119824286Y-73695714D01*
X122181429Y-73552857D02*
X122395715Y-73624286D01*
X122467143Y-73695714D01*
X122538572Y-73838571D01*
X122538572Y-74052857D01*
X122467143Y-74195714D01*
X122395715Y-74267143D01*
X122252857Y-74338571D01*
X121681429Y-74338571D01*
X121681429Y-72838571D01*
X122181429Y-72838571D01*
X122324286Y-72910000D01*
X122395715Y-72981429D01*
X122467143Y-73124286D01*
X122467143Y-73267143D01*
X122395715Y-73410000D01*
X122324286Y-73481429D01*
X122181429Y-73552857D01*
X121681429Y-73552857D01*
X123395715Y-74338571D02*
X123252857Y-74267143D01*
X123181429Y-74195714D01*
X123110000Y-74052857D01*
X123110000Y-73624286D01*
X123181429Y-73481429D01*
X123252857Y-73410000D01*
X123395715Y-73338571D01*
X123610000Y-73338571D01*
X123752857Y-73410000D01*
X123824286Y-73481429D01*
X123895715Y-73624286D01*
X123895715Y-74052857D01*
X123824286Y-74195714D01*
X123752857Y-74267143D01*
X123610000Y-74338571D01*
X123395715Y-74338571D01*
X125181429Y-74338571D02*
X125181429Y-73552857D01*
X125110000Y-73410000D01*
X124967143Y-73338571D01*
X124681429Y-73338571D01*
X124538572Y-73410000D01*
X125181429Y-74267143D02*
X125038572Y-74338571D01*
X124681429Y-74338571D01*
X124538572Y-74267143D01*
X124467143Y-74124286D01*
X124467143Y-73981429D01*
X124538572Y-73838571D01*
X124681429Y-73767143D01*
X125038572Y-73767143D01*
X125181429Y-73695714D01*
X125895715Y-74338571D02*
X125895715Y-73338571D01*
X125895715Y-73624286D02*
X125967143Y-73481429D01*
X126038572Y-73410000D01*
X126181429Y-73338571D01*
X126324286Y-73338571D01*
X127467143Y-74338571D02*
X127467143Y-72838571D01*
X127467143Y-74267143D02*
X127324286Y-74338571D01*
X127038572Y-74338571D01*
X126895714Y-74267143D01*
X126824286Y-74195714D01*
X126752857Y-74052857D01*
X126752857Y-73624286D01*
X126824286Y-73481429D01*
X126895714Y-73410000D01*
X127038572Y-73338571D01*
X127324286Y-73338571D01*
X127467143Y-73410000D01*
D12*
X96520000Y-97790000D03*
D13*
X99060000Y-97790000D03*
D12*
X116840000Y-118110000D03*
D13*
X116840000Y-115570000D03*
D12*
X133350000Y-118110000D03*
D13*
X133350000Y-115570000D03*
D12*
X153670000Y-97790000D03*
D13*
X151130000Y-97790000D03*
D12*
X153670000Y-81280000D03*
D13*
X151130000Y-81280000D03*
D12*
X133350000Y-60960000D03*
D13*
X133350000Y-63500000D03*
D12*
X116840000Y-60960000D03*
D13*
X116840000Y-63500000D03*
D12*
X96520000Y-81280000D03*
D13*
X99060000Y-81280000D03*
D14*
X78740000Y-81280000D03*
X78740000Y-83820000D03*
X78740000Y-86360000D03*
X78740000Y-88900000D03*
X78740000Y-91440000D03*
X78740000Y-93980000D03*
X78740000Y-96520000D03*
X78740000Y-99060000D03*
X86360000Y-99060000D03*
X86360000Y-96520000D03*
X86360000Y-93980000D03*
X86360000Y-91440000D03*
X86360000Y-88900000D03*
X86360000Y-86360000D03*
X86360000Y-83820000D03*
X86360000Y-81280000D03*
D15*
X78740000Y-68580000D03*
D16*
X78740000Y-66040000D03*
M02*
