M48
;DRILL file {KiCad 4.0.1-stable} date 2016 February 23, Tuesday 14:20:30
;FORMAT={-:-/ absolute / metric / decimal}
FMAT,2
METRIC,TZ
T1C0.800
T2C1.016
%
G90
G05
M71
T1
X93.345Y-96.52
X93.345Y-99.06
X93.345Y-101.6
X93.345Y-104.14
X93.345Y-106.68
X93.345Y-109.22
X93.345Y-111.76
X93.345Y-114.3
X100.965Y-96.52
X100.965Y-99.06
X100.965Y-101.6
X100.965Y-104.14
X100.965Y-106.68
X100.965Y-109.22
X100.965Y-111.76
X100.965Y-114.3
X106.045Y-96.52
X106.045Y-99.06
X106.045Y-101.6
X106.045Y-104.14
X106.045Y-106.68
X106.045Y-109.22
X106.045Y-111.76
X106.045Y-114.3
X113.03Y-83.185
T2
X100.33Y-80.01
X100.33Y-82.55
T0
M30
