G04 #@! TF.FileFunction,Copper,L2,Bot,Signal*
%FSLAX46Y46*%
G04 Gerber Fmt 4.6, Leading zero omitted, Abs format (unit mm)*
G04 Created by KiCad (PCBNEW 4.0.1-stable) date 2016 March 16, Wednesday 12:51:50*
%MOMM*%
G01*
G04 APERTURE LIST*
%ADD10C,0.100000*%
%ADD11C,0.150000*%
%ADD12R,1.300000X1.300000*%
%ADD13C,1.300000*%
%ADD14O,1.600000X1.600000*%
%ADD15R,1.727200X2.032000*%
%ADD16O,1.727200X2.032000*%
%ADD17R,1.727200X1.727200*%
%ADD18O,1.727200X1.727200*%
%ADD19R,2.032000X2.032000*%
%ADD20O,2.032000X2.032000*%
%ADD21R,2.032000X1.727200*%
%ADD22O,2.032000X1.727200*%
%ADD23R,2.000000X2.000000*%
%ADD24C,2.000000*%
%ADD25C,1.998980*%
%ADD26C,1.400000*%
%ADD27C,0.800000*%
G04 APERTURE END LIST*
D10*
D11*
X125000000Y-98500000D02*
X125000000Y-103000000D01*
X191000000Y-98500000D02*
X125000000Y-98500000D01*
X191000000Y-103050000D02*
X191000000Y-98450000D01*
X129494427Y-106600000D02*
G75*
G03X129494427Y-106600000I-894427J0D01*
G01*
X187494427Y-106600000D02*
G75*
G03X187494427Y-106600000I-894427J0D01*
G01*
X129494427Y-156000000D02*
G75*
G03X129494427Y-156000000I-894427J0D01*
G01*
X166500000Y-159500000D02*
X125000000Y-159500000D01*
X191000000Y-134500000D02*
X191000000Y-103000000D01*
X166500000Y-134500000D02*
X191000000Y-134500000D01*
X166500000Y-159500000D02*
X166500000Y-134500000D01*
X125000000Y-103000000D02*
X125000000Y-159500000D01*
D12*
X149900000Y-154600000D03*
D13*
X151900000Y-154600000D03*
D14*
X142500000Y-152800000D03*
X142500000Y-150260000D03*
X142500000Y-147720000D03*
X142500000Y-145180000D03*
X142500000Y-142640000D03*
X142500000Y-140100000D03*
X142500000Y-137560000D03*
X142500000Y-135020000D03*
X142500000Y-132480000D03*
X142500000Y-129940000D03*
X142500000Y-127400000D03*
X142500000Y-124860000D03*
X142500000Y-122320000D03*
X142500000Y-119780000D03*
X134880000Y-119780000D03*
X134880000Y-122320000D03*
X134880000Y-124860000D03*
X134880000Y-127400000D03*
X134880000Y-129940000D03*
X134880000Y-132480000D03*
X134880000Y-135020000D03*
X134880000Y-137560000D03*
X134880000Y-140100000D03*
X134880000Y-142640000D03*
X134880000Y-145180000D03*
X134880000Y-147720000D03*
X134880000Y-150260000D03*
X134880000Y-152800000D03*
D15*
X151500000Y-147950000D03*
D16*
X148960000Y-147950000D03*
X146420000Y-147950000D03*
D17*
X133500000Y-107700000D03*
D18*
X133500000Y-105160000D03*
X136040000Y-107700000D03*
X136040000Y-105160000D03*
X138580000Y-107700000D03*
X138580000Y-105160000D03*
X141120000Y-107700000D03*
X141120000Y-105160000D03*
X143660000Y-107700000D03*
X143660000Y-105160000D03*
X146200000Y-107700000D03*
X146200000Y-105160000D03*
X148740000Y-107700000D03*
X148740000Y-105160000D03*
X151280000Y-107700000D03*
X151280000Y-105160000D03*
X153820000Y-107700000D03*
X153820000Y-105160000D03*
X156360000Y-107700000D03*
X156360000Y-105160000D03*
X158900000Y-107700000D03*
X158900000Y-105160000D03*
X161440000Y-107700000D03*
X161440000Y-105160000D03*
X163980000Y-107700000D03*
X163980000Y-105160000D03*
X166520000Y-107700000D03*
X166520000Y-105160000D03*
X169060000Y-107700000D03*
X169060000Y-105160000D03*
X171600000Y-107700000D03*
X171600000Y-105160000D03*
X174140000Y-107700000D03*
X174140000Y-105160000D03*
X176680000Y-107700000D03*
X176680000Y-105160000D03*
X179220000Y-107700000D03*
X179220000Y-105160000D03*
X181760000Y-107700000D03*
X181760000Y-105160000D03*
D19*
X151550000Y-139750000D03*
D20*
X149010000Y-139750000D03*
D15*
X136300000Y-115150000D03*
D16*
X138840000Y-115150000D03*
X141380000Y-115150000D03*
D21*
X160250000Y-114500000D03*
D22*
X160250000Y-117040000D03*
X160250000Y-119580000D03*
X160250000Y-122120000D03*
X160250000Y-124660000D03*
D19*
X165100000Y-118950000D03*
D20*
X165100000Y-121490000D03*
D19*
X174250000Y-118750000D03*
D20*
X174250000Y-121290000D03*
D14*
X148350000Y-117100000D03*
X148350000Y-119640000D03*
X148350000Y-122180000D03*
X148350000Y-124720000D03*
X148350000Y-127260000D03*
X148350000Y-129800000D03*
X148350000Y-132340000D03*
X148350000Y-134880000D03*
X155970000Y-134880000D03*
X155970000Y-132340000D03*
X155970000Y-129800000D03*
X155970000Y-127260000D03*
X155970000Y-124720000D03*
X155970000Y-122180000D03*
X155970000Y-119640000D03*
X155970000Y-117100000D03*
D23*
X130500000Y-125300000D03*
D24*
X130500000Y-127840000D03*
D19*
X130350000Y-135400000D03*
D20*
X130350000Y-137940000D03*
D25*
X130400000Y-114100000D03*
X130400000Y-121720000D03*
X163750000Y-154750000D03*
X156130000Y-154750000D03*
X155250000Y-147400000D03*
X155250000Y-139780000D03*
X130350000Y-149450000D03*
X130350000Y-141830000D03*
X169650000Y-114150000D03*
X169650000Y-121770000D03*
X178800000Y-113850000D03*
X178800000Y-121470000D03*
D26*
X159050000Y-145050000D03*
X141000000Y-101650000D03*
X187300000Y-109950000D03*
X159050000Y-142600000D03*
X130200000Y-131550000D03*
X184900000Y-113250000D03*
X138600000Y-102200000D03*
X143550000Y-112700000D03*
X145400000Y-131700000D03*
X145400000Y-142400000D03*
X130600000Y-105300000D03*
X140700000Y-112700000D03*
X152700000Y-112800000D03*
X163050000Y-111200000D03*
X153900000Y-102200000D03*
D27*
X142500000Y-152800000D02*
X148100000Y-152800000D01*
X148100000Y-152800000D02*
X149900000Y-154600000D01*
X151900000Y-154600000D02*
X155980000Y-154600000D01*
X155980000Y-154600000D02*
X156130000Y-154750000D01*
X151900000Y-154600000D02*
X151900000Y-148350000D01*
X151900000Y-148350000D02*
X151500000Y-147950000D01*
X130500000Y-125300000D02*
X130500000Y-121820000D01*
X130500000Y-121820000D02*
X130400000Y-121720000D01*
X134880000Y-129940000D02*
X132600000Y-129940000D01*
X132600000Y-129940000D02*
X130500000Y-127840000D01*
X148960000Y-146290000D02*
X150200000Y-145050000D01*
X150200000Y-145050000D02*
X159050000Y-145050000D01*
X148960000Y-147950000D02*
X148960000Y-146290000D01*
X148960000Y-147950000D02*
X148960000Y-149790000D01*
X148490000Y-150260000D02*
X142500000Y-150260000D01*
X148960000Y-149790000D02*
X148490000Y-150260000D01*
X142600000Y-100050000D02*
X141000000Y-101650000D01*
X185150000Y-100050000D02*
X142600000Y-100050000D01*
X189800000Y-104700000D02*
X185150000Y-100050000D01*
X189800000Y-107450000D02*
X189800000Y-104700000D01*
X187300000Y-109950000D02*
X189800000Y-107450000D01*
X146420000Y-145730000D02*
X149550000Y-142600000D01*
X149550000Y-142600000D02*
X159050000Y-142600000D01*
X146420000Y-147950000D02*
X146420000Y-145730000D01*
X146420000Y-147950000D02*
X142730000Y-147950000D01*
X142730000Y-147950000D02*
X142500000Y-147720000D01*
X149010000Y-139750000D02*
X142850000Y-139750000D01*
X142850000Y-139750000D02*
X142500000Y-140100000D01*
X130350000Y-131700000D02*
X130350000Y-135400000D01*
X130200000Y-131550000D02*
X130350000Y-131700000D01*
X134880000Y-132480000D02*
X136130000Y-132480000D01*
X136130000Y-132480000D02*
X141210000Y-137560000D01*
X130350000Y-134500000D02*
X130350000Y-135400000D01*
X134880000Y-132480000D02*
X133270000Y-132480000D01*
X133270000Y-132480000D02*
X130350000Y-135400000D01*
X141300000Y-137560000D02*
X141210000Y-137560000D01*
X141210000Y-137560000D02*
X140910000Y-137560000D01*
X142500000Y-137560000D02*
X141300000Y-137560000D01*
X141300000Y-137560000D02*
X141190000Y-137560000D01*
X163750000Y-156300000D02*
X163750000Y-154750000D01*
X161850000Y-158200000D02*
X163750000Y-156300000D01*
X143700000Y-158200000D02*
X161850000Y-158200000D01*
X139850000Y-154350000D02*
X143700000Y-158200000D01*
X139850000Y-138900000D02*
X139850000Y-154350000D01*
X141190000Y-137560000D02*
X139850000Y-138900000D01*
X164000000Y-137300000D02*
X151650000Y-137300000D01*
X149230000Y-134880000D02*
X148350000Y-134880000D01*
X151650000Y-137300000D02*
X149230000Y-134880000D01*
X162150000Y-147400000D02*
X155250000Y-147400000D01*
X164000000Y-145550000D02*
X162150000Y-147400000D01*
X164000000Y-134800000D02*
X164000000Y-137300000D01*
X164000000Y-137300000D02*
X164000000Y-145550000D01*
X166350000Y-132450000D02*
X164000000Y-134800000D01*
X179850000Y-132450000D02*
X166350000Y-132450000D01*
X184800000Y-127500000D02*
X179850000Y-132450000D01*
X184800000Y-113350000D02*
X184800000Y-127500000D01*
X184900000Y-113250000D02*
X184800000Y-113350000D01*
X142500000Y-135020000D02*
X140970000Y-135020000D01*
X141380000Y-116420000D02*
X141380000Y-115150000D01*
X138800000Y-119000000D02*
X141380000Y-116420000D01*
X138800000Y-132850000D02*
X138800000Y-119000000D01*
X140970000Y-135020000D02*
X138800000Y-132850000D01*
X128100000Y-114100000D02*
X128100000Y-111100000D01*
X129150000Y-102200000D02*
X138600000Y-102200000D01*
X126350000Y-105000000D02*
X129150000Y-102200000D01*
X126350000Y-109350000D02*
X126350000Y-105000000D01*
X128100000Y-111100000D02*
X126350000Y-109350000D01*
X130350000Y-149450000D02*
X128850000Y-149450000D01*
X128050000Y-114100000D02*
X128100000Y-114100000D01*
X128100000Y-114100000D02*
X130400000Y-114100000D01*
X126750000Y-115400000D02*
X128050000Y-114100000D01*
X126750000Y-147350000D02*
X126750000Y-115400000D01*
X128850000Y-149450000D02*
X126750000Y-147350000D01*
X134880000Y-137560000D02*
X137410000Y-137560000D01*
X130350000Y-153800000D02*
X130350000Y-149450000D01*
X133050000Y-156500000D02*
X130350000Y-153800000D01*
X135800000Y-156500000D02*
X133050000Y-156500000D01*
X137750000Y-154550000D02*
X135800000Y-156500000D01*
X137750000Y-137900000D02*
X137750000Y-154550000D01*
X137410000Y-137560000D02*
X137750000Y-137900000D01*
X143550000Y-112700000D02*
X141380000Y-114870000D01*
X141380000Y-114870000D02*
X141380000Y-115150000D01*
X148350000Y-134880000D02*
X142640000Y-134880000D01*
X142640000Y-134880000D02*
X142500000Y-135020000D01*
X142500000Y-127400000D02*
X143837256Y-127400000D01*
X146517256Y-124720000D02*
X148350000Y-124720000D01*
X143837256Y-127400000D02*
X146517256Y-124720000D01*
X142500000Y-124860000D02*
X143090000Y-124860000D01*
X143090000Y-124860000D02*
X145770000Y-122180000D01*
X145770000Y-122180000D02*
X148350000Y-122180000D01*
X142500000Y-122320000D02*
X143180000Y-122320000D01*
X143180000Y-122320000D02*
X145860000Y-119640000D01*
X145860000Y-119640000D02*
X148350000Y-119640000D01*
X142500000Y-119780000D02*
X143220000Y-119780000D01*
X143220000Y-119780000D02*
X145900000Y-117100000D01*
X145900000Y-117100000D02*
X148350000Y-117100000D01*
X142500000Y-142640000D02*
X145160000Y-142640000D01*
X146240000Y-127260000D02*
X148350000Y-127260000D01*
X145400000Y-128100000D02*
X146240000Y-127260000D01*
X145400000Y-131700000D02*
X145400000Y-128100000D01*
X145160000Y-142640000D02*
X145400000Y-142400000D01*
X130350000Y-141830000D02*
X130350000Y-137940000D01*
X134880000Y-140100000D02*
X132080000Y-140100000D01*
X132080000Y-140100000D02*
X130350000Y-141830000D01*
X155970000Y-134880000D02*
X160070000Y-134880000D01*
X181050000Y-113850000D02*
X178800000Y-113850000D01*
X182000000Y-114800000D02*
X181050000Y-113850000D01*
X182000000Y-123400000D02*
X182000000Y-114800000D01*
X179050000Y-126350000D02*
X182000000Y-123400000D01*
X168600000Y-126350000D02*
X179050000Y-126350000D01*
X160070000Y-134880000D02*
X168600000Y-126350000D01*
X136050000Y-110750000D02*
X136050000Y-114900000D01*
X136050000Y-114900000D02*
X136300000Y-115150000D01*
X130600000Y-105300000D02*
X130500000Y-105400000D01*
X130500000Y-105400000D02*
X130500000Y-109800000D01*
X130500000Y-109800000D02*
X131450000Y-110750000D01*
X131450000Y-110750000D02*
X136050000Y-110750000D01*
X136050000Y-110750000D02*
X159550000Y-110750000D01*
X159550000Y-110750000D02*
X160250000Y-111450000D01*
X160250000Y-111450000D02*
X160250000Y-114500000D01*
X169650000Y-114150000D02*
X160600000Y-114150000D01*
X160600000Y-114150000D02*
X160250000Y-114500000D01*
X178800000Y-113850000D02*
X169950000Y-113850000D01*
X169950000Y-113850000D02*
X169650000Y-114150000D01*
X138840000Y-115150000D02*
X138840000Y-114560000D01*
X138840000Y-114560000D02*
X140700000Y-112700000D01*
X150610000Y-132340000D02*
X148350000Y-132340000D01*
X151650000Y-131300000D02*
X150610000Y-132340000D01*
X151650000Y-113850000D02*
X151650000Y-131300000D01*
X152700000Y-112800000D02*
X151650000Y-113850000D01*
X163200000Y-111050000D02*
X163050000Y-111200000D01*
X182850000Y-111050000D02*
X163200000Y-111050000D01*
X184300000Y-109600000D02*
X182850000Y-111050000D01*
X184300000Y-103250000D02*
X184300000Y-109600000D01*
X182900000Y-101850000D02*
X184300000Y-103250000D01*
X154250000Y-101850000D02*
X182900000Y-101850000D01*
X153900000Y-102200000D02*
X154250000Y-101850000D01*
X151550000Y-139750000D02*
X155220000Y-139750000D01*
X155220000Y-139750000D02*
X155250000Y-139780000D01*
X155970000Y-117100000D02*
X160190000Y-117100000D01*
X160190000Y-117100000D02*
X160250000Y-117040000D01*
X155970000Y-119640000D02*
X160190000Y-119640000D01*
X160190000Y-119640000D02*
X160250000Y-119580000D01*
X155970000Y-122180000D02*
X160190000Y-122180000D01*
X160190000Y-122180000D02*
X160250000Y-122120000D01*
X155970000Y-124720000D02*
X160190000Y-124720000D01*
X160190000Y-124720000D02*
X160250000Y-124660000D01*
X165100000Y-118950000D02*
X166830000Y-118950000D01*
X166830000Y-118950000D02*
X169650000Y-121770000D01*
X155970000Y-127260000D02*
X162590000Y-127260000D01*
X165100000Y-124750000D02*
X165100000Y-121490000D01*
X162590000Y-127260000D02*
X165100000Y-124750000D01*
X174250000Y-118750000D02*
X176080000Y-118750000D01*
X176080000Y-118750000D02*
X178800000Y-121470000D01*
X155970000Y-132340000D02*
X159860000Y-132340000D01*
X171090000Y-124450000D02*
X174250000Y-121290000D01*
X167750000Y-124450000D02*
X171090000Y-124450000D01*
X159860000Y-132340000D02*
X167750000Y-124450000D01*
M02*
