M48
;DRILL file {KiCad 4.0.1-stable} date 2016 March 16, Wednesday 12:51:52
;FORMAT={-:-/ absolute / metric / decimal}
FMAT,2
METRIC,TZ
T1C0.800
T2C1.001
T3C1.016
%
G90
G05
M71
T1
X130.2Y-131.55
X130.6Y-105.3
X134.88Y-119.78
X134.88Y-122.32
X134.88Y-124.86
X134.88Y-127.4
X134.88Y-129.94
X134.88Y-132.48
X134.88Y-135.02
X134.88Y-137.56
X134.88Y-140.1
X134.88Y-142.64
X134.88Y-145.18
X134.88Y-147.72
X134.88Y-150.26
X134.88Y-152.8
X138.6Y-102.2
X140.7Y-112.7
X141.Y-101.65
X142.5Y-119.78
X142.5Y-122.32
X142.5Y-124.86
X142.5Y-127.4
X142.5Y-129.94
X142.5Y-132.48
X142.5Y-135.02
X142.5Y-137.56
X142.5Y-140.1
X142.5Y-142.64
X142.5Y-145.18
X142.5Y-147.72
X142.5Y-150.26
X142.5Y-152.8
X143.55Y-112.7
X145.4Y-131.7
X145.4Y-142.4
X148.35Y-117.1
X148.35Y-119.64
X148.35Y-122.18
X148.35Y-124.72
X148.35Y-127.26
X148.35Y-129.8
X148.35Y-132.34
X148.35Y-134.88
X149.9Y-154.6
X151.9Y-154.6
X152.7Y-112.8
X153.9Y-102.2
X155.97Y-117.1
X155.97Y-119.64
X155.97Y-122.18
X155.97Y-124.72
X155.97Y-127.26
X155.97Y-129.8
X155.97Y-132.34
X155.97Y-134.88
X159.05Y-142.6
X159.05Y-145.05
X163.05Y-111.2
X184.9Y-113.25
X187.3Y-109.95
T2
X130.35Y-141.83
X130.35Y-149.45
X130.4Y-114.1
X130.4Y-121.72
X130.5Y-125.3
X130.5Y-127.84
X155.25Y-139.78
X155.25Y-147.4
X156.13Y-154.75
X163.75Y-154.75
X169.65Y-114.15
X169.65Y-121.77
X178.8Y-113.85
X178.8Y-121.47
T3
X130.35Y-135.4
X130.35Y-137.94
X133.5Y-105.16
X133.5Y-107.7
X136.04Y-105.16
X136.04Y-107.7
X136.3Y-115.15
X138.58Y-105.16
X138.58Y-107.7
X138.84Y-115.15
X141.12Y-105.16
X141.12Y-107.7
X141.38Y-115.15
X143.66Y-105.16
X143.66Y-107.7
X146.2Y-105.16
X146.2Y-107.7
X146.42Y-147.95
X148.74Y-105.16
X148.74Y-107.7
X148.96Y-147.95
X149.01Y-139.75
X151.28Y-105.16
X151.28Y-107.7
X151.5Y-147.95
X151.55Y-139.75
X153.82Y-105.16
X153.82Y-107.7
X156.36Y-105.16
X156.36Y-107.7
X158.9Y-105.16
X158.9Y-107.7
X160.25Y-114.5
X160.25Y-117.04
X160.25Y-119.58
X160.25Y-122.12
X160.25Y-124.66
X161.44Y-105.16
X161.44Y-107.7
X163.98Y-105.16
X163.98Y-107.7
X165.1Y-118.95
X165.1Y-121.49
X166.52Y-105.16
X166.52Y-107.7
X169.06Y-105.16
X169.06Y-107.7
X171.6Y-105.16
X171.6Y-107.7
X174.14Y-105.16
X174.14Y-107.7
X174.25Y-118.75
X174.25Y-121.29
X176.68Y-105.16
X176.68Y-107.7
X179.22Y-105.16
X179.22Y-107.7
X181.76Y-105.16
X181.76Y-107.7
T0
M30
