G04 #@! TF.FileFunction,Copper,L1,Top,Signal*
%FSLAX46Y46*%
G04 Gerber Fmt 4.6, Leading zero omitted, Abs format (unit mm)*
G04 Created by KiCad (PCBNEW 4.0.1-stable) date 2016 March 16, Wednesday 12:51:50*
%MOMM*%
G01*
G04 APERTURE LIST*
%ADD10C,0.100000*%
%ADD11C,0.300000*%
%ADD12C,0.150000*%
%ADD13R,1.300000X1.300000*%
%ADD14C,1.300000*%
%ADD15O,1.600000X1.600000*%
%ADD16R,1.727200X2.032000*%
%ADD17O,1.727200X2.032000*%
%ADD18R,1.727200X1.727200*%
%ADD19O,1.727200X1.727200*%
%ADD20R,2.032000X2.032000*%
%ADD21O,2.032000X2.032000*%
%ADD22R,2.032000X1.727200*%
%ADD23O,2.032000X1.727200*%
%ADD24R,2.000000X2.000000*%
%ADD25C,2.000000*%
%ADD26C,1.998980*%
%ADD27C,1.400000*%
%ADD28C,0.800000*%
G04 APERTURE END LIST*
D10*
D11*
X146428572Y-154607143D02*
X147571429Y-154607143D01*
X147000000Y-155178571D02*
X147000000Y-154035714D01*
X144928572Y-156178571D02*
X144071429Y-156178571D01*
X144500001Y-156178571D02*
X144500001Y-154678571D01*
X144357144Y-154892857D01*
X144214286Y-155035714D01*
X144071429Y-155107143D01*
X146928572Y-115678571D02*
X146071429Y-115678571D01*
X146500001Y-115678571D02*
X146500001Y-114178571D01*
X146357144Y-114392857D01*
X146214286Y-114535714D01*
X146071429Y-114607143D01*
X183478571Y-129142857D02*
X181978571Y-129142857D01*
X182692857Y-129142857D02*
X182692857Y-128285714D01*
X183478571Y-128285714D02*
X181978571Y-128285714D01*
X182478571Y-127714285D02*
X183478571Y-127357142D01*
X182478571Y-127000000D02*
X183478571Y-127357142D01*
X183835714Y-127500000D01*
X183907143Y-127571428D01*
X183978571Y-127714285D01*
X183478571Y-126428571D02*
X181978571Y-126428571D01*
X182550000Y-126428571D02*
X182478571Y-126285714D01*
X182478571Y-126000000D01*
X182550000Y-125857143D01*
X182621429Y-125785714D01*
X182764286Y-125714285D01*
X183192857Y-125714285D01*
X183335714Y-125785714D01*
X183407143Y-125857143D01*
X183478571Y-126000000D01*
X183478571Y-126285714D01*
X183407143Y-126428571D01*
X183478571Y-125071428D02*
X182478571Y-125071428D01*
X182764286Y-125071428D02*
X182621429Y-125000000D01*
X182550000Y-124928571D01*
X182478571Y-124785714D01*
X182478571Y-124642857D01*
X183478571Y-124142857D02*
X182478571Y-124142857D01*
X181978571Y-124142857D02*
X182050000Y-124214286D01*
X182121429Y-124142857D01*
X182050000Y-124071429D01*
X181978571Y-124142857D01*
X182121429Y-124142857D01*
X183478571Y-122785714D02*
X181978571Y-122785714D01*
X183407143Y-122785714D02*
X183478571Y-122928571D01*
X183478571Y-123214285D01*
X183407143Y-123357143D01*
X183335714Y-123428571D01*
X183192857Y-123500000D01*
X182764286Y-123500000D01*
X182621429Y-123428571D01*
X182550000Y-123357143D01*
X182478571Y-123214285D01*
X182478571Y-122928571D01*
X182550000Y-122785714D01*
X184050000Y-120500000D02*
X183978571Y-120571428D01*
X183764286Y-120714285D01*
X183621429Y-120785714D01*
X183407143Y-120857143D01*
X183050000Y-120928571D01*
X182764286Y-120928571D01*
X182407143Y-120857143D01*
X182192857Y-120785714D01*
X182050000Y-120714285D01*
X181835714Y-120571428D01*
X181764286Y-120500000D01*
X182478571Y-120071428D02*
X183478571Y-119714285D01*
X182478571Y-119357143D01*
X183478571Y-118000000D02*
X183478571Y-118857143D01*
X183478571Y-118428571D02*
X181978571Y-118428571D01*
X182192857Y-118571428D01*
X182335714Y-118714286D01*
X182407143Y-118857143D01*
X183335714Y-117357143D02*
X183407143Y-117285715D01*
X183478571Y-117357143D01*
X183407143Y-117428572D01*
X183335714Y-117357143D01*
X183478571Y-117357143D01*
X181978571Y-116357143D02*
X181978571Y-116214286D01*
X182050000Y-116071429D01*
X182121429Y-116000000D01*
X182264286Y-115928571D01*
X182550000Y-115857143D01*
X182907143Y-115857143D01*
X183192857Y-115928571D01*
X183335714Y-116000000D01*
X183407143Y-116071429D01*
X183478571Y-116214286D01*
X183478571Y-116357143D01*
X183407143Y-116500000D01*
X183335714Y-116571429D01*
X183192857Y-116642857D01*
X182907143Y-116714286D01*
X182550000Y-116714286D01*
X182264286Y-116642857D01*
X182121429Y-116571429D01*
X182050000Y-116500000D01*
X181978571Y-116357143D01*
X184050000Y-115357143D02*
X183978571Y-115285715D01*
X183764286Y-115142858D01*
X183621429Y-115071429D01*
X183407143Y-115000000D01*
X183050000Y-114928572D01*
X182764286Y-114928572D01*
X182407143Y-115000000D01*
X182192857Y-115071429D01*
X182050000Y-115142858D01*
X181835714Y-115285715D01*
X181764286Y-115357143D01*
X185878571Y-128428571D02*
X185878571Y-129142857D01*
X184378571Y-129142857D01*
X185807143Y-127357143D02*
X185878571Y-127500000D01*
X185878571Y-127785714D01*
X185807143Y-127928571D01*
X185664286Y-128000000D01*
X185092857Y-128000000D01*
X184950000Y-127928571D01*
X184878571Y-127785714D01*
X184878571Y-127500000D01*
X184950000Y-127357143D01*
X185092857Y-127285714D01*
X185235714Y-127285714D01*
X185378571Y-128000000D01*
X184878571Y-126857143D02*
X184878571Y-126285714D01*
X184378571Y-126642857D02*
X185664286Y-126642857D01*
X185807143Y-126571429D01*
X185878571Y-126428571D01*
X185878571Y-126285714D01*
X184878571Y-126000000D02*
X184878571Y-125428571D01*
X184378571Y-125785714D02*
X185664286Y-125785714D01*
X185807143Y-125714286D01*
X185878571Y-125571428D01*
X185878571Y-125428571D01*
X185807143Y-124357143D02*
X185878571Y-124500000D01*
X185878571Y-124785714D01*
X185807143Y-124928571D01*
X185664286Y-125000000D01*
X185092857Y-125000000D01*
X184950000Y-124928571D01*
X184878571Y-124785714D01*
X184878571Y-124500000D01*
X184950000Y-124357143D01*
X185092857Y-124285714D01*
X185235714Y-124285714D01*
X185378571Y-125000000D01*
X185878571Y-123642857D02*
X184878571Y-123642857D01*
X185164286Y-123642857D02*
X185021429Y-123571429D01*
X184950000Y-123500000D01*
X184878571Y-123357143D01*
X184878571Y-123214286D01*
X185878571Y-122714286D02*
X184378571Y-122714286D01*
X184950000Y-122714286D02*
X184878571Y-122571429D01*
X184878571Y-122285715D01*
X184950000Y-122142858D01*
X185021429Y-122071429D01*
X185164286Y-122000000D01*
X185592857Y-122000000D01*
X185735714Y-122071429D01*
X185807143Y-122142858D01*
X185878571Y-122285715D01*
X185878571Y-122571429D01*
X185807143Y-122714286D01*
X185878571Y-121142857D02*
X185807143Y-121285715D01*
X185735714Y-121357143D01*
X185592857Y-121428572D01*
X185164286Y-121428572D01*
X185021429Y-121357143D01*
X184950000Y-121285715D01*
X184878571Y-121142857D01*
X184878571Y-120928572D01*
X184950000Y-120785715D01*
X185021429Y-120714286D01*
X185164286Y-120642857D01*
X185592857Y-120642857D01*
X185735714Y-120714286D01*
X185807143Y-120785715D01*
X185878571Y-120928572D01*
X185878571Y-121142857D01*
X185878571Y-120142857D02*
X184878571Y-119357143D01*
X184878571Y-120142857D02*
X185878571Y-119357143D01*
X164428572Y-115607143D02*
X165571429Y-115607143D01*
X165000000Y-116178571D02*
X165000000Y-115035714D01*
X173928572Y-115607143D02*
X175071429Y-115607143D01*
X174500000Y-116178571D02*
X174500000Y-115035714D01*
X132928572Y-115107143D02*
X134071429Y-115107143D01*
X133500000Y-115678571D02*
X133500000Y-114535714D01*
X156428572Y-113607143D02*
X157571429Y-113607143D01*
X157000000Y-114178571D02*
X157000000Y-113035714D01*
X161107143Y-130750000D02*
X161178571Y-130535714D01*
X161178571Y-130178571D01*
X161107143Y-130035714D01*
X161035714Y-129964285D01*
X160892857Y-129892857D01*
X160750000Y-129892857D01*
X160607143Y-129964285D01*
X160535714Y-130035714D01*
X160464286Y-130178571D01*
X160392857Y-130464285D01*
X160321429Y-130607143D01*
X160250000Y-130678571D01*
X160107143Y-130750000D01*
X159964286Y-130750000D01*
X159821429Y-130678571D01*
X159750000Y-130607143D01*
X159678571Y-130464285D01*
X159678571Y-130107143D01*
X159750000Y-129892857D01*
X159678571Y-129464286D02*
X159678571Y-128607143D01*
X161178571Y-129035714D02*
X159678571Y-129035714D01*
X161178571Y-128107143D02*
X159678571Y-128107143D01*
X159678571Y-127535715D01*
X159750000Y-127392857D01*
X159821429Y-127321429D01*
X159964286Y-127250000D01*
X160178571Y-127250000D01*
X160321429Y-127321429D01*
X160392857Y-127392857D01*
X160464286Y-127535715D01*
X160464286Y-128107143D01*
X147214286Y-145607143D02*
X147428572Y-145678571D01*
X147785715Y-145678571D01*
X147928572Y-145607143D01*
X148000001Y-145535714D01*
X148071429Y-145392857D01*
X148071429Y-145250000D01*
X148000001Y-145107143D01*
X147928572Y-145035714D01*
X147785715Y-144964286D01*
X147500001Y-144892857D01*
X147357143Y-144821429D01*
X147285715Y-144750000D01*
X147214286Y-144607143D01*
X147214286Y-144464286D01*
X147285715Y-144321429D01*
X147357143Y-144250000D01*
X147500001Y-144178571D01*
X147857143Y-144178571D01*
X148071429Y-144250000D01*
X149571429Y-145678571D02*
X149071429Y-144964286D01*
X148714286Y-145678571D02*
X148714286Y-144178571D01*
X149285714Y-144178571D01*
X149428572Y-144250000D01*
X149500000Y-144321429D01*
X149571429Y-144464286D01*
X149571429Y-144678571D01*
X149500000Y-144821429D01*
X149428572Y-144892857D01*
X149285714Y-144964286D01*
X148714286Y-144964286D01*
X150928572Y-145678571D02*
X150214286Y-145678571D01*
X150214286Y-144178571D01*
X173892857Y-128321428D02*
X173892857Y-128821428D01*
X174678571Y-128821428D02*
X173178571Y-128821428D01*
X173178571Y-128107142D01*
X174678571Y-126821428D02*
X174678571Y-127535714D01*
X173178571Y-127535714D01*
X173892857Y-126321428D02*
X173892857Y-125821428D01*
X174678571Y-125607142D02*
X174678571Y-126321428D01*
X173178571Y-126321428D01*
X173178571Y-125607142D01*
X174678571Y-124964285D02*
X173178571Y-124964285D01*
X173178571Y-124607142D01*
X173250000Y-124392857D01*
X173392857Y-124249999D01*
X173535714Y-124178571D01*
X173821429Y-124107142D01*
X174035714Y-124107142D01*
X174321429Y-124178571D01*
X174464286Y-124249999D01*
X174607143Y-124392857D01*
X174678571Y-124607142D01*
X174678571Y-124964285D01*
X165678571Y-128928571D02*
X164178571Y-128928571D01*
X164178571Y-128357143D01*
X164250000Y-128214285D01*
X164321429Y-128142857D01*
X164464286Y-128071428D01*
X164678571Y-128071428D01*
X164821429Y-128142857D01*
X164892857Y-128214285D01*
X164964286Y-128357143D01*
X164964286Y-128928571D01*
X165678571Y-126714285D02*
X165678571Y-127428571D01*
X164178571Y-127428571D01*
X164892857Y-126214285D02*
X164892857Y-125714285D01*
X165678571Y-125499999D02*
X165678571Y-126214285D01*
X164178571Y-126214285D01*
X164178571Y-125499999D01*
X165678571Y-124857142D02*
X164178571Y-124857142D01*
X164178571Y-124499999D01*
X164250000Y-124285714D01*
X164392857Y-124142856D01*
X164535714Y-124071428D01*
X164821429Y-123999999D01*
X165035714Y-123999999D01*
X165321429Y-124071428D01*
X165464286Y-124142856D01*
X165607143Y-124285714D01*
X165678571Y-124499999D01*
X165678571Y-124857142D01*
X135964286Y-112035714D02*
X135892857Y-112107143D01*
X135678571Y-112178571D01*
X135535714Y-112178571D01*
X135321429Y-112107143D01*
X135178571Y-111964286D01*
X135107143Y-111821429D01*
X135035714Y-111535714D01*
X135035714Y-111321429D01*
X135107143Y-111035714D01*
X135178571Y-110892857D01*
X135321429Y-110750000D01*
X135535714Y-110678571D01*
X135678571Y-110678571D01*
X135892857Y-110750000D01*
X135964286Y-110821429D01*
X136535714Y-111750000D02*
X137250000Y-111750000D01*
X136392857Y-112178571D02*
X136892857Y-110678571D01*
X137392857Y-112178571D01*
X137892857Y-112178571D02*
X137892857Y-110678571D01*
X138392857Y-111750000D01*
X138892857Y-110678571D01*
X138892857Y-112178571D01*
X128178571Y-137642857D02*
X126678571Y-137642857D01*
X126678571Y-137071429D01*
X126750000Y-136928571D01*
X126821429Y-136857143D01*
X126964286Y-136785714D01*
X127178571Y-136785714D01*
X127321429Y-136857143D01*
X127392857Y-136928571D01*
X127464286Y-137071429D01*
X127464286Y-137642857D01*
X128178571Y-135285714D02*
X127464286Y-135785714D01*
X128178571Y-136142857D02*
X126678571Y-136142857D01*
X126678571Y-135571429D01*
X126750000Y-135428571D01*
X126821429Y-135357143D01*
X126964286Y-135285714D01*
X127178571Y-135285714D01*
X127321429Y-135357143D01*
X127392857Y-135428571D01*
X127464286Y-135571429D01*
X127464286Y-136142857D01*
D12*
X125000000Y-98500000D02*
X125000000Y-103000000D01*
X191000000Y-98500000D02*
X125000000Y-98500000D01*
X191000000Y-103050000D02*
X191000000Y-98450000D01*
X129494427Y-106600000D02*
G75*
G03X129494427Y-106600000I-894427J0D01*
G01*
X187494427Y-106600000D02*
G75*
G03X187494427Y-106600000I-894427J0D01*
G01*
X129494427Y-156000000D02*
G75*
G03X129494427Y-156000000I-894427J0D01*
G01*
X166500000Y-159500000D02*
X125000000Y-159500000D01*
X191000000Y-134500000D02*
X191000000Y-103000000D01*
X166500000Y-134500000D02*
X191000000Y-134500000D01*
X166500000Y-159500000D02*
X166500000Y-134500000D01*
X125000000Y-103000000D02*
X125000000Y-159500000D01*
D13*
X149900000Y-154600000D03*
D14*
X151900000Y-154600000D03*
D15*
X142500000Y-152800000D03*
X142500000Y-150260000D03*
X142500000Y-147720000D03*
X142500000Y-145180000D03*
X142500000Y-142640000D03*
X142500000Y-140100000D03*
X142500000Y-137560000D03*
X142500000Y-135020000D03*
X142500000Y-132480000D03*
X142500000Y-129940000D03*
X142500000Y-127400000D03*
X142500000Y-124860000D03*
X142500000Y-122320000D03*
X142500000Y-119780000D03*
X134880000Y-119780000D03*
X134880000Y-122320000D03*
X134880000Y-124860000D03*
X134880000Y-127400000D03*
X134880000Y-129940000D03*
X134880000Y-132480000D03*
X134880000Y-135020000D03*
X134880000Y-137560000D03*
X134880000Y-140100000D03*
X134880000Y-142640000D03*
X134880000Y-145180000D03*
X134880000Y-147720000D03*
X134880000Y-150260000D03*
X134880000Y-152800000D03*
D16*
X151500000Y-147950000D03*
D17*
X148960000Y-147950000D03*
X146420000Y-147950000D03*
D18*
X133500000Y-107700000D03*
D19*
X133500000Y-105160000D03*
X136040000Y-107700000D03*
X136040000Y-105160000D03*
X138580000Y-107700000D03*
X138580000Y-105160000D03*
X141120000Y-107700000D03*
X141120000Y-105160000D03*
X143660000Y-107700000D03*
X143660000Y-105160000D03*
X146200000Y-107700000D03*
X146200000Y-105160000D03*
X148740000Y-107700000D03*
X148740000Y-105160000D03*
X151280000Y-107700000D03*
X151280000Y-105160000D03*
X153820000Y-107700000D03*
X153820000Y-105160000D03*
X156360000Y-107700000D03*
X156360000Y-105160000D03*
X158900000Y-107700000D03*
X158900000Y-105160000D03*
X161440000Y-107700000D03*
X161440000Y-105160000D03*
X163980000Y-107700000D03*
X163980000Y-105160000D03*
X166520000Y-107700000D03*
X166520000Y-105160000D03*
X169060000Y-107700000D03*
X169060000Y-105160000D03*
X171600000Y-107700000D03*
X171600000Y-105160000D03*
X174140000Y-107700000D03*
X174140000Y-105160000D03*
X176680000Y-107700000D03*
X176680000Y-105160000D03*
X179220000Y-107700000D03*
X179220000Y-105160000D03*
X181760000Y-107700000D03*
X181760000Y-105160000D03*
D20*
X151550000Y-139750000D03*
D21*
X149010000Y-139750000D03*
D16*
X136300000Y-115150000D03*
D17*
X138840000Y-115150000D03*
X141380000Y-115150000D03*
D22*
X160250000Y-114500000D03*
D23*
X160250000Y-117040000D03*
X160250000Y-119580000D03*
X160250000Y-122120000D03*
X160250000Y-124660000D03*
D20*
X165100000Y-118950000D03*
D21*
X165100000Y-121490000D03*
D20*
X174250000Y-118750000D03*
D21*
X174250000Y-121290000D03*
D15*
X148350000Y-117100000D03*
X148350000Y-119640000D03*
X148350000Y-122180000D03*
X148350000Y-124720000D03*
X148350000Y-127260000D03*
X148350000Y-129800000D03*
X148350000Y-132340000D03*
X148350000Y-134880000D03*
X155970000Y-134880000D03*
X155970000Y-132340000D03*
X155970000Y-129800000D03*
X155970000Y-127260000D03*
X155970000Y-124720000D03*
X155970000Y-122180000D03*
X155970000Y-119640000D03*
X155970000Y-117100000D03*
D24*
X130500000Y-125300000D03*
D25*
X130500000Y-127840000D03*
D20*
X130350000Y-135400000D03*
D21*
X130350000Y-137940000D03*
D26*
X130400000Y-114100000D03*
X130400000Y-121720000D03*
X163750000Y-154750000D03*
X156130000Y-154750000D03*
X155250000Y-147400000D03*
X155250000Y-139780000D03*
X130350000Y-149450000D03*
X130350000Y-141830000D03*
X169650000Y-114150000D03*
X169650000Y-121770000D03*
X178800000Y-113850000D03*
X178800000Y-121470000D03*
D27*
X159050000Y-145050000D03*
X141000000Y-101650000D03*
X187300000Y-109950000D03*
X159050000Y-142600000D03*
X130200000Y-131550000D03*
X184900000Y-113250000D03*
X138600000Y-102200000D03*
X143550000Y-112700000D03*
X145400000Y-131700000D03*
X145400000Y-142400000D03*
X130600000Y-105300000D03*
X140700000Y-112700000D03*
X152700000Y-112800000D03*
X163050000Y-111200000D03*
X153900000Y-102200000D03*
D28*
X189400000Y-111550000D02*
X189400000Y-109000000D01*
X143660000Y-102890000D02*
X143660000Y-105160000D01*
X146300000Y-100250000D02*
X143660000Y-102890000D01*
X185400000Y-100250000D02*
X146300000Y-100250000D01*
X190100000Y-104950000D02*
X185400000Y-100250000D01*
X190100000Y-108300000D02*
X190100000Y-104950000D01*
X189400000Y-109000000D02*
X190100000Y-108300000D01*
X189400000Y-130650000D02*
X189400000Y-111550000D01*
X189400000Y-111550000D02*
X189400000Y-111500000D01*
X187150000Y-132900000D02*
X189400000Y-130650000D01*
X166550000Y-132900000D02*
X187150000Y-132900000D01*
X164950000Y-134500000D02*
X166550000Y-132900000D01*
X164950000Y-142700000D02*
X164950000Y-134500000D01*
X162650000Y-145000000D02*
X164950000Y-142700000D01*
X159100000Y-145000000D02*
X162650000Y-145000000D01*
X159050000Y-145050000D02*
X159100000Y-145000000D01*
X187799998Y-112150000D02*
X187799998Y-110449998D01*
X141120000Y-101770000D02*
X141120000Y-105160000D01*
X141000000Y-101650000D02*
X141120000Y-101770000D01*
X187799998Y-110449998D02*
X187300000Y-109950000D01*
X187799998Y-129950000D02*
X187799998Y-112150000D01*
X187799998Y-112150000D02*
X187799998Y-111950000D01*
X186450000Y-131299998D02*
X187799998Y-129950000D01*
X165887258Y-131299998D02*
X186450000Y-131299998D01*
X163300000Y-133887256D02*
X165887258Y-131299998D01*
X163300000Y-141050000D02*
X163300000Y-133887256D01*
X161850000Y-142500000D02*
X163300000Y-141050000D01*
X159150000Y-142500000D02*
X161850000Y-142500000D01*
X159050000Y-142600000D02*
X159150000Y-142500000D01*
X133500000Y-107700000D02*
X131600000Y-107700000D01*
X126500000Y-127850000D02*
X130200000Y-131550000D01*
X126500000Y-112800000D02*
X126500000Y-127850000D01*
X131600000Y-107700000D02*
X126500000Y-112800000D01*
X154100000Y-107980000D02*
X153820000Y-107700000D01*
X181760000Y-107700000D02*
X181760000Y-110110000D01*
X181760000Y-110110000D02*
X184900000Y-113250000D01*
X138580000Y-102220000D02*
X138580000Y-105160000D01*
X138600000Y-102200000D02*
X138580000Y-102220000D01*
X143660000Y-107700000D02*
X143660000Y-112590000D01*
X143660000Y-112590000D02*
X143550000Y-112700000D01*
X145400000Y-142400000D02*
X145400000Y-131700000D01*
X136040000Y-105160000D02*
X133500000Y-105160000D01*
X133500000Y-105160000D02*
X133360000Y-105300000D01*
X133360000Y-105300000D02*
X130600000Y-105300000D01*
X140700000Y-112700000D02*
X141120000Y-112280000D01*
X141120000Y-112280000D02*
X141120000Y-107700000D01*
X153820000Y-105160000D02*
X153820000Y-102280000D01*
X154350000Y-111150000D02*
X152700000Y-112800000D01*
X163000000Y-111150000D02*
X154350000Y-111150000D01*
X163050000Y-111200000D02*
X163000000Y-111150000D01*
X153820000Y-102280000D02*
X153900000Y-102200000D01*
M02*
